<svg xmlns="http://www.w3.org/2000/svg" width="33" height="24" viewBox="0 0 33 24">
  <g id="Arrow" transform="translate(-7.5 -11.786)">
    <path id="Path_810" data-name="Path 810" d="M7.5,23.786A1.494,1.494,0,0,1,9,22.3H39a1.487,1.487,0,1,1,0,2.973H9A1.494,1.494,0,0,1,7.5,23.786Z" fill="#fff"/>
    <path id="Path_811" data-name="Path 811" d="M27.1,35.338a1.477,1.477,0,0,1,.023-2.1L37.951,22.723a1.512,1.512,0,0,1,2.121.022,1.477,1.477,0,0,1-.022,2.1L29.218,35.36a1.509,1.509,0,0,1-2.122-.022Z" fill="#fff"/>
    <path id="Path_812" data-name="Path 812" d="M37.949,24.849,27.116,14.335a1.476,1.476,0,0,1-.022-2.1,1.507,1.507,0,0,1,2.121-.022L40.048,22.724a1.476,1.476,0,0,1,.023,2.1,1.511,1.511,0,0,1-2.121.022Z" fill="#fff"/>
  </g>
</svg>
