<svg xmlns="http://www.w3.org/2000/svg" width="107" height="78" viewBox="0 0 107 78">
  <g id="Vector_Smart_Object" data-name="Vector Smart Object" transform="translate(-117.394 -351.453)">
    <g id="Group_20" data-name="Group 20">
      <path id="Path_837" data-name="Path 837" d="M136.2,412.393v-25.23l29.887,12.2a6.18,6.18,0,0,0,4.706-.011l30.643-12.5v25.546a3.129,3.129,0,0,1-.256,1.206c-.015.039-5.866,13.839-32.066,15.841a3.053,3.053,0,0,1-.527.005c-23.825-1.8-30.855-13.349-31.963-15.5a3.048,3.048,0,0,1-.422-1.552Zm-16.89-41.145,47.945-19.563a3.122,3.122,0,0,1,2.358,0l47.944,19.563a3.073,3.073,0,0,1,1.233,4.785v29.461l5.13,8.144a3.087,3.087,0,0,1-2.639,4.709l-11.21.008a3.091,3.091,0,0,1-2.538-4.876l5.028-7.982V378.979l-42.949,17.526a3.127,3.127,0,0,1-2.358,0l-47.945-19.562a3.073,3.073,0,0,1,0-5.695Z" fill="#eabe56" fill-rule="evenodd"/>
    </g>
  </g>
</svg>
