<svg xmlns="http://www.w3.org/2000/svg" width="138" height="90" viewBox="0 0 138 90">
  <g id="icon" transform="translate(-779.842 -729.155)">
    <path id="Path_830" data-name="Path 830" d="M878.819,774.923a3.058,3.058,0,0,0-.718.051q-12.838,5.2-25.661,10.427c-.4.165-1.02.711-.963.919a2.1,2.1,0,0,0,.971,1.171q3.28,1.722,6.627,3.3c1.564.744,3.064,2.151,4.943.574.269-.226.878.015,1.294-.1a2.709,2.709,0,0,0,1.41-.647c4.028-5.168,8.007-10.373,12.1-15.7m-27.846,38.819c.108.1.215.2.321.3q12.991-5.236,25.97-10.494c.4-.16.918-.665.909-.994-.011-.353-.521-.809-.918-1.014-2.248-1.161-4.526-2.261-6.795-3.379-1.581-.78-3.08-2.06-4.972-.629-.286.216-.865,0-1.291.07a1.91,1.91,0,0,0-1.12.415q-6.085,7.835-12.1,15.723m29.694-37.682c-.176-.078-.352-.159-.526-.239-.384.469-.781.929-1.151,1.408-3.414,4.442-6.808,8.9-10.246,13.321-.841,1.081-1.743,2.073-.781,3.515.415.621.758,1.447,1.351,1.766,2.727,1.466,5.523,2.805,8.312,4.153,1.848.893,3.031.144,3.039-1.914.018-4.287,0-8.573,0-12.858v-9.15m-31.53,37.092a6.735,6.735,0,0,0,.867-.7q5.821-7.556,11.618-15.131a3.176,3.176,0,0,0-1.012-4.038q-4.241-2.141-8.507-4.218c-1.977-.968-3.216-.24-3.219,1.934q-.017,10.268.034,20.537a14.89,14.89,0,0,0,.219,1.615m60.546-52.686c-.24-.183-.324-.3-.408-.3q-17.43-.024-34.862-.007a1.473,1.473,0,0,0-1.165.646,1.71,1.71,0,0,0,.407,1.306c1.415,1.8,2.895,3.551,4.341,5.326,1.012,1.244,1.831,2.771,3.884,2.22a1.493,1.493,0,0,1,1.2.441c.836.9,1.623.548,2.542.172,6.956-2.85,13.929-5.66,20.895-8.485,1.026-.417,2.046-.85,3.166-1.316m.04-1.878c.018-.137.037-.276.055-.414q-12.47-5.052-24.951-10.074c-.365-.146-.9.092-1.341.2-.892.219-1.785.448-2.659.724a3.445,3.445,0,0,0-1.565.687c-1.914,2.215-3.765,4.489-5.577,6.791a1.76,1.76,0,0,0-.37,1.453,1.791,1.791,0,0,0,1.38.6c2.971.054,5.941.026,8.914.026h26.115M851.1,783.906c.253.062.392.147.482.109q12.93-5.2,25.844-10.445a2.682,2.682,0,0,0,.829-3.4q-2.871-3.578-5.832-7.077c-.783-.929-3.423-.943-4.189-.015-5.709,6.914-11.4,13.847-17.135,20.825m.265-49.413c-.077.087-.156.173-.236.26q8.612,10.471,17.232,20.935c.645.781,3.342.724,4-.062q2.946-3.514,5.828-7.081a2.6,2.6,0,0,0-.849-3.5q-12.978-5.3-25.978-10.551m-2.345,48.621.728.419a9.311,9.311,0,0,1,.76-1.3c5.407-6.6,10.839-13.176,16.227-19.787a6.266,6.266,0,0,0,.687-1.772,7.189,7.189,0,0,0-1.84-.523c-4.234-.046-8.467-.029-12.7-.021-1.751,0-3.973,2.268-3.974,4.051q-.01,8.544,0,17.088c0,.616.071,1.231.11,1.847m.689-47.948-.6.343a4.356,4.356,0,0,0-.181.878q-.022,9.3-.008,18.6c0,1.123,2.561,3.59,3.679,3.594,4.354.013,8.709.029,13.062-.023a6.047,6.047,0,0,0,1.781-.615,6.431,6.431,0,0,0-.71-1.769c-5.339-6.554-10.721-13.076-16.083-19.614-.353-.43-.626-.929-.937-1.395m-35.5,37.736c4.775,1.171,10.832,2.482,13.942,5.632.037-.1.076.59.115.49-16.02-6.5-32.04-13-48.425-19.645.81-.378,1.312-.641,1.835-.853q30.679-12.453,61.365-24.889c1.068-.432,1.959-.749,2.169-2.222a2.752,2.752,0,0,1,2.93-2.261,2.8,2.8,0,0,1,3.045,2.358c.207,1.257.915,1.645,1.89,2.035q12.146,4.883,24.269,9.822a2.175,2.175,0,0,0,2.382-.181c1.923-1.3,4.052-.306,4.809,1.9a3.239,3.239,0,0,0,1.556,1.785q12.269,5.086,24.619,9.974a2.923,2.923,0,0,0,2.136-.213,3.307,3.307,0,0,1,4.153.522,3.166,3.166,0,0,1,.081,4.211,2.829,2.829,0,0,1-4.071.621,2.292,2.292,0,0,0-2.58-.139q-12.126,4.941-24.271,9.84c-.918.369-1.689.71-1.727,1.941a1.924,1.924,0,0,1-.823,1.432c-1.5.737-1.443,1.986-1.436,3.358q.053,9.7,0,19.4a2.328,2.328,0,0,0,1.107,2.361,3.129,3.129,0,0,1,.71,4.414,2.969,2.969,0,0,1-4.192.826,2.3,2.3,0,0,0-2.579-.213q-12.107,4.924-24.24,9.785c-.925.371-1.581.737-1.8,1.888a3.106,3.106,0,0,1-6-.047c-.229-1.193-.954-1.5-1.841-1.857-9.093-3.664-18.171-7.37-27.285-10.985a2.473,2.473,0,0,1-1.891-2.752c.1-7.749.045-15.5.045-23.25Z" fill="#eabe56"/>
  </g>
</svg>
