<svg xmlns="http://www.w3.org/2000/svg" xmlns:xlink="http://www.w3.org/1999/xlink" width="38" height="30" viewBox="0 0 38 30">
  <defs>
    <clipPath id="clip-path">
      <rect id="crop" width="38" height="30" fill="none"/>
    </clipPath>
  </defs>
  <g id="email" clip-path="url(#clip-path)">
    <path id="Path_847" data-name="Path 847" d="M42.75-3.75H-4.75c-3.265,0-5.937,2.11-5.937,4.688V29.063c0,2.579,2.673,4.688,5.938,4.688h47.5c3.266,0,5.938-2.109,5.938-4.687V.938C48.688-1.64,46.016-3.75,42.75-3.75ZM41.563,6.211,22.148,15.8a7.237,7.237,0,0,1-6.294,0L-3.562,6.211A1.953,1.953,0,0,1-4.75,4.524c0-1.571,2.168-2.509,3.86-1.687L19,12.656l19.891-9.82c1.691-.82,3.859.117,3.859,1.687A1.955,1.955,0,0,1,41.563,6.211Z" fill="#eabe56"/>
  </g>
</svg>
