<svg xmlns="http://www.w3.org/2000/svg" width="111" height="60" viewBox="0 0 111 60">
  <g id="icon" transform="translate(-8.535 -164.551)">
    <path id="Path_829" data-name="Path 829" d="M25.654,207.246a7.218,7.218,0,0,0,5.083-8.763,7.422,7.422,0,0,0-8.8-5.118,7.3,7.3,0,0,0-4.9,8.7,6.982,6.982,0,0,0,8.614,5.181m84.638-18.031c-.848-.645-2.066-1.574-3.288-2.5-1.158-.874-2.323-1.74-4.253-3.188-.9,2.191-1.44,3.633-2.086,5.024-.611,1.317-1.337,2.58-2.309,4.437L90.1,187.269c-1.353,3.195-2.451,5.789-3.658,8.637-3.274-1.79-5.859-3.2-8.787-4.8-1.639,2.973-3.077,5.891-4.828,8.6-.7,1.086-2.078,1.746-3.192,2.536a2.979,2.979,0,0,1-1.221.345c-4.531.723-7.51,2.558-9.69,7.359-4.88,10.741-15.88,15.93-27.454,14.308-10.662-1.5-19.511-9.993-22.072-21.194a27.065,27.065,0,0,1,12.1-28.843,26.4,26.4,0,0,1,30.962,2.365,4.573,4.573,0,0,0,4.8,1.035c15.69-4.305,31.415-8.486,47.1-12.794a5.351,5.351,0,0,1,4.787.663c2.852,1.867,5.824,3.551,8.744,5.313,1.832,1.1,2.442,2.481,1.19,4.476-2.767,4.407-5.465,8.857-8.585,13.933" fill="#eabe56"/>
  </g>
</svg>
