<svg xmlns="http://www.w3.org/2000/svg" width="19.001" height="24" viewBox="0 0 19.001 24">
  <g id="Vector_Smart_Object" data-name="Vector Smart Object" transform="translate(-328.859 -510.5)">
    <path id="Path_2" data-name="Path 2" d="M338.411,531.335c.354,0,1.487-.463,3.107-1.939,2.576-2.333,5.582-6.433,5.582-10.293a8.743,8.743,0,0,0-17.483,0C329.618,525.168,336.794,531.206,338.411,531.335Zm-.052-17.357a4.1,4.1,0,1,1-4.166,4.1A4.134,4.134,0,0,1,338.359,513.978Zm9.5,18.163c0,.8-3.352,2.359-9.5,2.359s-9.5-1.557-9.5-2.359c0-.536,1.569-1.531,5.064-2.046a.59.59,0,0,0,.175-.055c1.638,1.522,3.241,2.5,4.21,2.573h.122c1.307,0,3.211-1.583,3.978-2.277.1-.086.192-.181.288-.275a.909.909,0,0,0,.1.026C346.291,530.61,347.86,531.6,347.86,532.141Z" fill="#eabe56"/>
  </g>
</svg>
