<svg xmlns="http://www.w3.org/2000/svg" width="30" height="30" viewBox="0 0 30 30">
  <g id="Call" transform="translate(-187.667 -187.667)">
    <path id="Path_848" data-name="Path 848" d="M215.3,207.419a17.108,17.108,0,0,1-5.381-.856,2.311,2.311,0,0,0-2.342.5l-3.407,2.571a19.035,19.035,0,0,1-8.466-8.465l2.5-3.325a2.39,2.39,0,0,0,.586-2.416,17.157,17.157,0,0,1-.86-5.389,2.369,2.369,0,0,0-2.369-2.368h-5.526a2.368,2.368,0,0,0-2.368,2.368A27.664,27.664,0,0,0,215.3,217.667a2.369,2.369,0,0,0,2.369-2.369v-5.51A2.369,2.369,0,0,0,215.3,207.419Z" fill="#eabe56"/>
    <g id="Group_24" data-name="Group 24">
      <path id="Path_849" data-name="Path 849" d="M216.877,200.3a.789.789,0,0,1-.789-.789,10.276,10.276,0,0,0-10.264-10.264.789.789,0,1,1,0-1.578,11.854,11.854,0,0,1,11.843,11.842A.79.79,0,0,1,216.877,200.3Z" fill="#eabe56"/>
      <path id="Path_850" data-name="Path 850" d="M210.561,200.3a.789.789,0,0,1-.789-.789,3.949,3.949,0,0,0-3.948-3.948.79.79,0,0,1,0-1.579,5.527,5.527,0,0,1,5.527,5.527A.79.79,0,0,1,210.561,200.3Z" fill="#eabe56"/>
    </g>
  </g>
</svg>
