<svg xmlns="http://www.w3.org/2000/svg" width="108" height="90" viewBox="0 0 108 90">
  <g id="icon" transform="translate(-593.381 -300.534)">
    <g id="Group_19" data-name="Group 19">
      <path id="Path_831" data-name="Path 831" d="M593.381,305.506c4.5-.454,9-.958,13.5-1.352,13.317-1.166,26.638-2.265,39.953-3.446a30.661,30.661,0,0,1,12.075,1.037c13.591,4.2,27.276,8.1,40.92,12.123a2.877,2.877,0,0,1,1.551.981l-20.544,3.636q.514,5.144,1.028,10.29a1.6,1.6,0,0,1,.066.433c-1.009,4.971,1.063,9.628,1.492,14.454.172,1.93-.5,2.476-2.149,2.626-5.185.469-5.678.043-4.993-5.017.383-2.833,1.006-5.634,1.522-8.45a2.067,2.067,0,0,0,.133-.641c-.781-4.492.673-8.949.184-13.443-.123-1.129-.189-1.942-1.571-2.167-11.233-1.825-22.455-3.719-33.689-5.532-.5-.08-1.085.414-1.632.641.468.467.874,1.247,1.408,1.351,4.154.8,8.331,1.482,12.505,2.169,6.407,1.057,12.821,2.084,19.23,3.143a2.111,2.111,0,0,1,1.394.957c-2.743.493-5.484.992-8.228,1.473-10.851,1.9-21.7,3.837-32.565,5.645a6.786,6.786,0,0,1-4-.522c-12.566-6.579-25.07-13.278-37.59-19.944Z" fill="#eabe56"/>
      <path id="Path_832" data-name="Path 832" d="M651.289,390.534c-6.638-2.207-13.268-4.446-19.918-6.613-10.338-3.37-20.693-6.681-31.034-10.037-4.2-1.363-5.725-5.315-3.727-9.4.567-1.158,1.119-1.545,2.533-1.083,16.718,5.455,33.466,10.815,50.2,16.2.479.153.94.362,1.158.447-.192,2.858-.376,5.566-.6,8.859,4.858-2.144,8.978-3.951,13.089-5.778q9.816-4.356,19.626-8.728c1.17-.518,2.388-1.31,3.674.4-.8.416-1.509.836-2.258,1.17q-15.712,7-31.433,13.978a6.259,6.259,0,0,0-.876.575Z" fill="#eabe56"/>
      <path id="Path_833" data-name="Path 833" d="M618.37,322.083c3.6,1.912,6.993,3.608,10.279,5.489a10.734,10.734,0,0,0,7.592,1.163c10.333-1.864,20.68-3.663,31.023-5.474.712-.124,1.443-.148,2.388-.242a119.506,119.506,0,0,1-.15,12.167c-.133,1.3-1.808,2.819-3.146,3.554-4.307,2.369-9.145,2.94-13.948,3.313-8.913.691-17.8.639-26.551-1.588a25.127,25.127,0,0,1-2.706-.871c-4.177-1.582-4.885-2.6-4.917-7.145-.02-3.023,0-6.047.013-9.071,0-.285.052-.57.123-1.3" fill="#eabe56"/>
      <path id="Path_834" data-name="Path 834" d="M650.28,368.1c-.208,2.873-.4,5.53-.628,8.721,1.29-.469,2.012-.684,2.694-.987,10.142-4.505,20.269-9.045,30.435-13.5a10.284,10.284,0,0,1,3.043-.331c.068.285.133.568.2.853a18.615,18.615,0,0,1-1.747,1.006c-10.406,4.638-20.806,9.291-31.252,13.833a5.405,5.405,0,0,1-3.489.182c-16.824-5.339-33.578-10.9-50.45-16.078-3.7-1.134-4.458-7.549-2.032-10.249.3-.331,1.338-.189,1.948.007q21.257,6.814,42.49,13.7c3.042.982,6.081,1.968,8.787,2.843" fill="#eabe56"/>
      <path id="Path_835" data-name="Path 835" d="M650.484,356.261c-.182,3.1-.338,5.74-.523,8.912,5.583-2.483,10.487-4.671,15.393-6.847,5.94-2.635,11.866-5.3,17.842-7.848a9.547,9.547,0,0,1,3.008-.237l.155.9c-2.424,1.112-4.837,2.246-7.271,3.33-8.733,3.89-17.462,7.785-26.226,11.6a4.112,4.112,0,0,1-2.669.111q-25.632-8.17-51.223-16.46c-2.474-.8-3.8-4.374-2.824-7.647a24.712,24.712,0,0,1,1.318-2.952l53.019,17.133" fill="#eabe56"/>
      <path id="Path_836" data-name="Path 836" d="M599.128,338.493l16.637-7.375c0,1.037.066,1.811-.012,2.57a6.5,6.5,0,0,0,4.584,7.224,59.5,59.5,0,0,0,11.963,3.216,79.014,79.014,0,0,0,30.884-1.429c5.01-1.3,7.459-3.233,8.961-6.84l2.268.663c-.43,3.023-.749,5.945-1.315,8.816a3.273,3.273,0,0,1-1.629,2.019c-5.967,2.759-11.979,5.419-18.008,8.039a3.5,3.5,0,0,1-2.273.155q-25.751-8.247-51.467-16.6c-.13-.041-.229-.172-.594-.462" fill="#eabe56"/>
    </g>
  </g>
</svg>
