<svg xmlns="http://www.w3.org/2000/svg" width="109.999" height="60" viewBox="0 0 109.999 60">
  <g id="logo_icon" data-name="logo icon" transform="translate(-620.246 -645)">
    <g id="Group_18" data-name="Group 18">
      <path id="Path_816" data-name="Path 816" d="M620.246,660.061a10.842,10.842,0,0,0,1,.86,44.761,44.761,0,0,1,13.791,19.506c.251.685,1.687,1.328,2.582,1.344,15.549.3,28.406,5.5,36.574,19.94C667.7,677.936,642.164,662.888,620.246,660.061Zm17.39,20.726a2.882,2.882,0,0,1-1.682-.717,45.151,45.151,0,0,0-12.48-18.506,74.307,74.307,0,0,1,28.956,12.268c8.2,5.851,14.353,12.959,18.1,20.843C662.912,685.619,652.077,681.06,637.636,680.787Z" fill="#eabe56" fill-rule="evenodd"/>
      <path id="Path_817" data-name="Path 817" d="M680.084,696.386a59.415,59.415,0,0,1,16.21-22.255c2.336-1.989,4.615-4.017,7.085-5.867-5.829-2.869-11.345-5.11-17.415-8.683-8.659-5.1-13.378-9.425-19.527-14.581-4.565,3.928-11.484,15.81-14.5,25.042a57.805,57.805,0,0,1,16.206,14.719c4.575,6.065,7.2,12.952,9.1,20.239-.254-.973.905-3.316,1.219-4.275Q679.19,698.526,680.084,696.386Zm-2.867,4.861a53.542,53.542,0,0,0-8.283-17.079,59.161,59.161,0,0,0-15.811-14.553c2.916-8.494,8.992-19.085,13.342-23.306q.85.716,1.674,1.415a112.511,112.511,0,0,0,17.325,12.7c4.233,2.491,8.261,4.37,12.155,6.188,1.275.6,2.583,1.206,3.9,1.839-1.528,1.206-3,2.47-4.432,3.7q-.713.613-1.43,1.225a59.861,59.861,0,0,0-12.19,14.255,60.678,60.678,0,0,0-4.291,8.371c-.6,1.446-1.155,2.931-1.64,4.411C677.47,700.619,677.348,700.922,677.217,701.247Z" fill="#eabe56" fill-rule="evenodd"/>
      <path id="Path_818" data-name="Path 818" d="M730.245,678.077c-.249-.345-.284-.445-.345-.475-.406-.171-.81-.327-1.214-.489-11.838-4.626-22.242-11.052-28.613-22.612a2.35,2.35,0,0,0-1.62-1.016q-.814-.054-1.6-.055v.985c.5,0,1.014.018,1.524.052a1.453,1.453,0,0,1,.829.51c5.526,10.026,14.192,17.034,28,22.611a115.277,115.277,0,0,0-24.755,6.78l-.364-2.186c0-.25-.2-.309-.453-.309h-.029l.043-8.99c1.613-1.331,3.323-2.648,5.295-4.091l1.4-1.029-1.6-.674a207.787,207.787,0,0,1-19.866-9.852l-.353-.189a22.444,22.444,0,0,1,10.322-2.634v-.985h0c-4.492,0-8.217,1.346-12.323,3.536,0,.059,0,.069.008.128,9.411,5.056,14.172,7.682,21.831,10.9a99.755,99.755,0,0,0-15.516,13.848c-7.138,8.514-10.8,16.954-11.126,22.527,4.245-8.684,11.409-13.638,19.471-17.47l-.721,4.345c0,.249.2,1.505.45,1.505h4.221c.251,0,.453-1.256.453-1.505l-.978-5.884C711.415,681.659,720.693,679.635,730.245,678.077Zm-30.26,4.105-.588,3.54c-6.193,2.879-12.768,6.724-17.549,13.245,1.934-5.8,5.976-11.969,9.745-16.468a113.006,113.006,0,0,1,8.8-8.547l.011,7.921h.038C700.189,681.874,699.985,681.932,699.985,682.182Z" fill="#eabe56" fill-rule="evenodd"/>
    </g>
  </g>
</svg>
