<svg xmlns="http://www.w3.org/2000/svg" width="24.001" height="24" viewBox="0 0 24.001 24">
  <g id="Vector_Smart_Object" data-name="Vector Smart Object" transform="translate(-321.655 -510.5)">
    <g id="Group_2" data-name="Group 2">
      <g id="Group_1" data-name="Group 1">
        <path id="Path_3" data-name="Path 3" d="M343.43,515.578v-.025c-.026-.038-.063-.076-.1-.126-.227-.3-.468-.593-.707-.883-.063-.076-.139-.151-.2-.227-.252-.277-.531-.542-.809-.794-.05-.051-.1-.088-.151-.139a12.7,12.7,0,0,0-2.275-1.538c-.038-.013-.063-.038-.1-.05a9.331,9.331,0,0,0-1.111-.492c-.089-.025-.164-.063-.24-.088a9.75,9.75,0,0,0-1.036-.316c-.1-.025-.2-.05-.316-.075-.341-.076-.682-.139-1.036-.189-.1-.013-.214-.038-.316-.051a11.021,11.021,0,0,0-2.728,0c-.1.013-.215.038-.317.051-.354.05-.694.113-1.035.189-.1.025-.2.05-.317.075-.354.089-.694.2-1.036.316-.088.025-.163.063-.239.088-.379.151-.758.315-1.112.492-.038.012-.063.037-.1.05a11.764,11.764,0,0,0-2.287,1.538c-.05.051-.1.088-.151.139a9.619,9.619,0,0,0-.809.794c-.076.076-.139.151-.2.227a9.592,9.592,0,0,0-.707.883c-.025.038-.063.075-.1.126,0,.012-.012.012-.012.025a11.912,11.912,0,0,0,0,13.844c0,.013.012.013.012.025.026.038.063.076.1.126.227.3.468.593.707.883.063.076.139.151.2.227.252.277.531.542.809.794.05.051.1.088.151.139a12.7,12.7,0,0,0,2.275,1.538c.038.013.063.038.1.05a9.333,9.333,0,0,0,1.111.492c.089.025.164.063.24.088a9.742,9.742,0,0,0,1.036.316c.1.025.2.05.316.075.341.076.682.139,1.036.189.1.013.214.038.316.051a11.018,11.018,0,0,0,2.728,0c.1-.013.215-.038.317-.051.354-.05.694-.113,1.035-.189.1-.025.2-.05.317-.075.354-.089.694-.2,1.036-.316.088-.025.163-.063.239-.088.379-.151.758-.315,1.112-.492.038-.012.063-.037.1-.05a11.641,11.641,0,0,0,2.273-1.538c.05-.051.1-.088.151-.139a9.619,9.619,0,0,0,.809-.794c.076-.076.139-.151.2-.227a9.426,9.426,0,0,0,.707-.883c.025-.038.063-.075.1-.126,0-.012.013-.012.013-.025A11.873,11.873,0,0,0,343.43,515.578Zm-.973,1.626a10.315,10.315,0,0,1,1.453,4.451h-5.142a16.427,16.427,0,0,0-.48-3.026A15.956,15.956,0,0,0,342.457,517.2Zm-6.633-4.74c.051.012.089.025.139.038.3.075.606.151.91.252.05.012.088.038.139.05q.436.152.871.341l.152.075a7.971,7.971,0,0,1,.8.416l.177.1c.253.151.492.315.719.479a1.007,1.007,0,0,1,.177.139c.227.177.442.353.656.555.051.05.114.1.164.151.215.214.43.429.632.656.025.025.05.063.075.088a14.435,14.435,0,0,1-3.663,1.173,21.344,21.344,0,0,0-2.312-4.577C335.584,512.426,335.71,512.439,335.824,512.464Zm-5.584,9.191a14.492,14.492,0,0,1,.468-2.748,24.487,24.487,0,0,0,5.862,0,14.328,14.328,0,0,1,.468,2.748Zm6.8,1.715a14.513,14.513,0,0,1-.468,2.749,25.272,25.272,0,0,0-2.931-.177,22.734,22.734,0,0,0-2.931.177,14.355,14.355,0,0,1-.468-2.749Zm-3.4-10.591a20.7,20.7,0,0,1,2.388,4.451,22.68,22.68,0,0,1-4.775,0A20.983,20.983,0,0,1,333.638,512.779Zm-7.719,2.938c.2-.227.417-.454.632-.656.05-.05.113-.1.164-.151.214-.189.429-.378.656-.555.063-.05.114-.088.177-.139.227-.176.48-.328.72-.479l.176-.1q.4-.227.8-.416l.152-.075q.436-.189.872-.341c.05-.012.088-.038.138-.05.3-.1.607-.177.91-.252.051-.013.088-.026.139-.038.113-.025.24-.038.354-.063a21.3,21.3,0,0,0-2.312,4.577,14.442,14.442,0,0,1-3.664-1.173A.56.56,0,0,0,325.919,515.717Zm-1.1,1.487A15.735,15.735,0,0,0,329,518.629a16.419,16.419,0,0,0-.48,3.026H323.38A10.127,10.127,0,0,1,324.82,517.2Zm0,10.6a10.31,10.31,0,0,1-1.453-4.451h5.142a16.406,16.406,0,0,0,.48,3.026A16.029,16.029,0,0,0,324.82,527.808Zm6.633,4.753c-.051-.012-.088-.025-.139-.037-.3-.076-.606-.152-.91-.253-.05-.012-.088-.037-.138-.05q-.436-.152-.872-.34l-.152-.076a7.961,7.961,0,0,1-.8-.416l-.176-.1c-.254-.151-.493-.315-.72-.479a.963.963,0,0,1-.177-.139c-.227-.176-.442-.353-.656-.555-.051-.05-.114-.1-.164-.151-.215-.214-.43-.429-.632-.655-.025-.026-.05-.064-.075-.089a14.432,14.432,0,0,1,3.663-1.172,21.365,21.365,0,0,0,2.312,4.577C331.692,532.6,331.566,532.587,331.453,532.561Zm2.185-.327a20.7,20.7,0,0,1-2.388-4.451,21.657,21.657,0,0,1,4.788,0h0A21.334,21.334,0,0,1,333.638,532.234Zm7.719-2.938c-.2.227-.417.454-.632.656-.05.05-.113.1-.164.151-.214.189-.429.378-.656.555l-.177.138c-.227.177-.48.328-.719.479l-.177.1q-.4.228-.8.416l-.152.076q-.434.189-.871.34c-.051.013-.089.038-.139.051-.3.1-.606.176-.91.252l-.139.038c-.113.025-.239.038-.354.063a21.326,21.326,0,0,0,2.313-4.577,14.448,14.448,0,0,1,3.663,1.173Zm1.1-1.488a15.807,15.807,0,0,0-4.182-1.425,16.327,16.327,0,0,0,.48-3.026H343.9A10.123,10.123,0,0,1,342.457,527.808Z" fill="#eabe56"/>
      </g>
    </g>
  </g>
</svg>
