<svg xmlns="http://www.w3.org/2000/svg" width="973" height="532" viewBox="0 0 973 532">
  <g id="Group_23" data-name="Group 23" transform="translate(-0.139 -221.628)">
    <path id="Path_844" data-name="Path 844" d="M.139,355.168c2.9,3.081,6.6,5.719,8.855,7.63,55.883,47.228,97.11,103.214,121.982,172.951,2.224,6.079,14.919,11.777,22.835,11.923,137.536,2.611,251.265,48.779,323.518,176.793C419.862,513.662,194.008,380.225.139,355.168Zm153.83,183.773c-5.367-.1-13.413-4.168-14.877-6.364C116.554,469.481,80.355,415.634,28.7,368.5c89.548,16.513,181.423,55.349,256.128,108.775,72.549,51.88,126.961,114.893,160.094,184.8C377.537,581.778,281.7,541.364,153.969,538.941Z" fill="#fff" fill-rule="evenodd"/>
    <path id="Path_845" data-name="Path 845" d="M529.441,677.251a526.806,526.806,0,0,1,143.387-197.33c20.659-17.628,40.82-35.616,62.667-52.019-51.56-25.438-100.35-45.316-154.044-76.993-76.6-45.185-118.329-83.564-172.72-129.282C368.351,256.448,307.15,361.815,280.5,443.668c56.622,34.6,104,78.225,143.352,130.515,40.467,53.771,63.7,114.839,80.527,179.445-2.245-8.627,8.005-29.406,10.775-37.9Q521.539,696.212,529.441,677.251Zm-25.362,43.108C485.354,658.7,461.746,610.035,430.81,568.927A523.813,523.813,0,0,0,290.953,439.888c25.8-75.311,79.546-169.219,118.017-206.65q7.522,6.357,14.809,12.547c46.13,39.147,85.977,72.956,153.25,112.644,37.449,22.094,73.067,38.753,107.513,54.865,11.286,5.283,22.854,10.691,34.492,16.3-13.509,10.7-26.523,21.907-39.2,32.819-4.207,3.621-8.42,7.256-12.654,10.863a530.265,530.265,0,0,0-107.83,126.4A537.511,537.511,0,0,0,521.4,673.893c-5.345,12.823-10.222,25.992-14.511,39.113C506.31,714.779,505.232,717.472,504.079,720.359Z" fill="#fff" fill-rule="evenodd"/>
    <path id="Path_846" data-name="Path 846" d="M973.139,514.915c-2.2-3.053-2.508-3.946-3.06-4.209-3.584-1.516-7.155-2.909-10.733-4.335-104.708-41.017-196.743-98-253.1-200.494-2.452-4.41-9.262-8.641-14.325-9.015q-7.211-.489-14.118-.485v8.731c4.413,0,8.972.153,13.483.464,2.154.159,6.354,2.755,7.335,4.52C747.5,399,824.157,461.124,946.34,510.581c-68.214,11.927-144.622,28.965-218.979,60.116l-3.213-19.384c0-2.222-1.79-2.734-4-2.734h-.256l.369-79.71c14.271-11.8,29.4-23.474,46.843-36.285l12.418-9.112-14.186-5.982c-62.694-26.428-102.851-48.065-175.725-87.35l-3.115-1.676c33.747-16.485,61.016-23.354,91.3-23.354l.013-8.731h-.013c-39.729,0-72.682,11.93-108.992,31.351.028.52.028.61.063,1.136,83.241,44.832,125.353,68.116,193.1,96.671-54.012,39.659-86.274,68.644-137.24,122.787-63.136,75.49-95.523,150.317-98.416,199.746,37.542-77,100.911-120.921,172.223-154.907l-6.387,38.524c0,2.209,1.8,13.349,3.985,13.349h37.339c2.217,0,4-11.141,4-13.349l-8.648-52.169C806.569,546.667,888.642,528.728,973.139,514.915Zm-267.666,36.4-5.2,31.383c-54.778,25.526-112.931,59.618-155.226,117.438,17.108-51.458,52.865-106.121,86.191-146.01,29.769-31.62,53.012-54.455,77.8-75.784l.1,70.238h.339C707.268,548.579,705.472,549.091,705.472,551.313Z" fill="#fff" fill-rule="evenodd"/>
  </g>
</svg>
