<svg xmlns="http://www.w3.org/2000/svg" width="175" height="120" viewBox="0 0 175 120">
  <g id="logo" transform="translate(-26.289 -14.513)">
    <g id="Group_15" data-name="Group 15">
      <path id="Path_543" data-name="Path 543" d="M163.064,61.9V60.542q-.09-1.162-.181-2.321c-.015-.293-.031-.586-.044-.88q-.206-1.533-.408-3.065a58.287,58.287,0,0,0-2.648-9.511,47.774,47.774,0,0,0-21.892-24.434A48.638,48.638,0,0,0,113.9,14.515l-3.71.225-2.533.316-3.936.767a47,47,0,0,0-17.3,7.979l-2.329,1.714-1.312,1.149a8.876,8.876,0,0,0-1.584,1.464v.023l.068.045,1.719-1.488,3.258-2.479a52.864,52.864,0,0,1,15.786-7.415c2.107-.583,4.325-.809,6.626-1.264l2.4-.224h.814c.659-.115,1.4.024,2.126-.09a10.257,10.257,0,0,1,2.8.046l2.262.135c1.159.2,2.426.309,3.528.541,2.1.44,3.992.833,5.9,1.4a46.25,46.25,0,0,1,19.449,11.676,48.481,48.481,0,0,1,5.316,6.2q.361.461.723.923c.147.211.512.734.678,1.037q.442.676.882,1.353a32.791,32.791,0,0,1,2.08,3.922c.689,1.59,1.286,3.2,1.946,4.869l.745,1.757v.767c.36,1.45.753,3.025,1.087,4.575q.2,1.443.406,2.885c.016.286.032.571.046.856a21.265,21.265,0,0,1,.181,6.108v1.082q-.114,1.3-.226,2.592c-.549,2.906-.929,5.543-1.627,8.249a28.074,28.074,0,0,1-1.018,2.66c-5.753,15.591-17.607,25.448-34.24,30.183v.089a3.254,3.254,0,0,0,1.311-.292c1.079-.318,2.116-.6,3.121-.924a50.585,50.585,0,0,0,11.217-5.3c10.059-6.27,17.638-15.3,20.919-28.311q.318-1.24.634-2.48.316-1.881.632-3.764.138-1.511.272-3.021v-.766a8.836,8.836,0,0,0,.045-2.389" fill="#a97500"/>
      <path id="Path_544" data-name="Path 544" d="M119.234,16.479v-.068c-.037-.014-.074-.03-.113-.046-.479.3-.937.512-1.17,1.055a3.214,3.214,0,0,0,.81,2.534c.323.1.646.208.968.314.153.1.149.339.314.426.12.039.208-.03.36-.044.267.368.851,1.074.315,1.435v.089c.237.1.917-.422,1.011-.65.1-.25-.527-1.286-.7-1.369-.117-.03-.288.086-.382.157-.476-.034-.313-.367-.585-.561-.162-.114-.4-.088-.585-.2-.2-.123-.263-.444-.385-.649-.489-.843-.76-1.77.137-2.422" fill="#a97500"/>
      <path id="Path_545" data-name="Path 545" d="M120.134,16.681l-.317.314v.112a1.311,1.311,0,0,1,.653,1.435,1.19,1.19,0,0,0,1.193.134.294.294,0,0,0,.066-.2c-.155-.1-.313-.209-.472-.313.076-.773-.258-1.5-1.123-1.48" fill="#a97500"/>
      <path id="Path_546" data-name="Path 546" d="M106.275,18.632c-.124-.436-.173-.973-.5-1.211a1.952,1.952,0,0,0-1.036-.2.8.8,0,0,0-.494.247l-.046.044c.259.314.821.166,1.081.583a4,4,0,0,1,.27,1.054c.185.7.345,1.477.539,2.241.091.375.181.748.271,1.122-.1.474-.625.417-.474,1.3.273.156.73-.1,1.057-.179l2.138-.539a3.745,3.745,0,0,0,1.238-.336c-.008-.038-.015-.075-.022-.112-.094-.133-.587-.016-.833.044-.88.217-1.89.552-2.743.739-.039-.037-.076-.073-.113-.112-.19-.487.389-.839.516-1.166q-.427-1.761-.853-3.521" fill="#a97500"/>
      <path id="Path_547" data-name="Path 547" d="M123.643,21.166a10.66,10.66,0,0,0-.406,1.7c.184.108.4.015.609-.044a6.01,6.01,0,0,0,.471-1.884q.249-1.009.5-2.019a1.547,1.547,0,0,0-.112-1.077c-.172-.245-.914-.324-1.328-.312l-.068.09v.067c.213.365.587.293.766.852a2.708,2.708,0,0,1-.2,1.368l-.225,1.256" fill="#a97500"/>
      <path id="Path_548" data-name="Path 548" d="M135.657,107.527l-3.1,1.326a64.471,64.471,0,0,1-7.164,2.19c-1.372.354-2.822.449-4.214.751-.3.013-.592.028-.888.044-.9.18-1.943.131-2.906.309h-1.53a11.778,11.778,0,0,1-2.706,0h-1.6c-.686-.1-1.468-.091-2.087-.221-.569-.046-1.137-.088-1.707-.133-1.868-.4-3.822-.527-5.566-1.083-1.52-.485-3.061-.84-4.525-1.371a55.444,55.444,0,0,1-10.181-4.973,44.466,44.466,0,0,1-6.5-5A50.421,50.421,0,0,1,65.949,74.724c-.467-1.669-.641-3.462-1.065-5.195-.139-.563-.108-1.245-.223-1.769v-.53a15.312,15.312,0,0,1-.221-2.3V63.493a7.255,7.255,0,0,1,0-2.387c.115-.6-.017-1.368.089-1.857q.022-.829.044-1.658c.274-1.314.359-2.8.622-4.068a64.292,64.292,0,0,1,1.6-6.542A48.646,48.646,0,0,1,79.832,26.291a51.81,51.81,0,0,1,7.431-5.88c.785-.492,1.576-.979,2.4-1.459q.421-.233.844-.465l.043-.132h-.132L87.328,20.1a55.337,55.337,0,0,0-4.635,3.25A49.826,49.826,0,0,0,67.479,43.379a58.934,58.934,0,0,0-3.128,10.7c-.286,1.3-.251,2.685-.531,3.978q-.022.843-.045,1.682a15.334,15.334,0,0,0-.09,2.962,14.265,14.265,0,0,0,.09,2.808q.022.84.045,1.679c.278,1.293.25,2.675.531,3.978.427,1.972.809,3.945,1.375,5.793.4,1.293.913,2.579,1.354,3.8a41.894,41.894,0,0,0,4.591,8.974c6.2,9.334,13.9,15.566,25.063,19.962a52.311,52.311,0,0,0,6.942,1.967c1.009.242,2.047.316,3.038.531l1.575.134a30.157,30.157,0,0,0,6.165.308,47.079,47.079,0,0,0,16.389-2.9c1.393-.507,2.776-1.08,4.1-1.68l1.841-.907.022-.089v-.022c-.339-.066-.863.358-1.153.487" fill="#a97500"/>
      <path id="Path_549" data-name="Path 549" d="M99.277,23.3c.266-.215.282-.815.406-1.166q.494-1.469.99-2.938c.091-.264.495-1.305.247-1.39-.194.112-.5.1-.584.337s-.9,2.795-1.351,4.192a2.1,2.1,0,0,0,.158.919.078.078,0,0,0,.134.046" fill="#a97500"/>
      <path id="Path_550" data-name="Path 550" d="M112.911,19.237a6.643,6.643,0,0,0-.606-.74,2.87,2.87,0,0,0-.556-.674.272.272,0,0,0-.348-.034c-.476.379.5,1.309.813,1.919-.031.833-.965,1.144-.9,1.817.018.184.663.321.833.311a.608.608,0,0,0,.495-.357c-.14-.177-.445-.2-.608-.358.135-.552,1.235-1.377.877-1.883" fill="#a97500"/>
      <path id="Path_551" data-name="Path 551" d="M96.284,19.462c-.055-.052-.041-.062-.136-.091-.379.179-.87.449-.809.741s.753.443.945.852q.6,1.58,1.192,3.162c.158.456.435,1.264.473,1.368a.415.415,0,0,0,.472.291,3.361,3.361,0,0,0,1.035-.426c.008-.023.015-.046.022-.067l-.045-.067c-.959.112-.885-.546-1.148-1.279q-.628-1.681-1.26-3.363c-.179-.42-.813-.443-.922-.875.044-.067.09-.134.134-.2l.046-.044" fill="#a97500"/>
      <path id="Path_552" data-name="Path 552" d="M102.4,20.583c-.085-.353-.129-.918-.5-.987-.752.885.128,2.308.316,3.3.116.616-.2,1.316.292,1.547.223.1.521-.189.586-.336.089-.155-.118-.262-.158-.426v-.74a8.856,8.856,0,0,0-.54-2.354" fill="#a97500"/>
      <path id="Path_553" data-name="Path 553" d="M127.265,20.313c.132-.178.374-.311.428-.561-.007-.015-.017-.029-.023-.045-.03-.007-.06-.015-.089-.021-.73.392-2.29,2.126-1.846,3.5a3,3,0,0,0,1.554,1.616c.376.22,2.216,1.116,2.5.493v-.179a8.075,8.075,0,0,0-.945-.337c-1.2-.512-2.938-1.375-2.25-3.251a5.015,5.015,0,0,1,.675-1.211" fill="#a97500"/>
      <path id="Path_554" data-name="Path 554" d="M132.058,24.036a4.371,4.371,0,0,0-.5,1.277.43.43,0,0,0,.451.046c.314-.147.427-.773.561-1.1q.472-1.178.946-2.355a2.55,2.55,0,0,0,.314-1.166,1.06,1.06,0,0,0-.921-.426l-.114.09c.05.243.243.325.293.56a2.249,2.249,0,0,1-.339,1.256q-.347.908-.7,1.817" fill="#a97500"/>
      <path id="Path_555" data-name="Path 555" d="M113.5,20.695a2.348,2.348,0,0,0,1.958,1.1c.045-.045.09-.027.135-.135s-.06-.194-.09-.291l-.5-.247c-.284-.257-.352-.723-.855-.762a2.292,2.292,0,0,0-.45.067c-.165.054-.26.2-.2.269" fill="#a97500"/>
      <path id="Path_556" data-name="Path 556" d="M117.029,22.646c.175.363.915.227,1.373.313.721.135,2.525.86,3.015.022-.008-.022-.016-.045-.023-.068-.2-.082-.62.066-.945,0l-1.126-.358a8.95,8.95,0,0,1-1.417-.2c-.071-.046-.047-.01-.068-.113.187-.142.377-.283.564-.426a1.635,1.635,0,0,0-.067-1.39l-.406-.044-.091.067c-.387.212.081,1.126-.111,1.547-.133.288-.54.347-.7.651" fill="#a97500"/>
      <path id="Path_557" data-name="Path 557" d="M130.865,21.278a7.21,7.21,0,0,0-2.542-.65,2,2,0,0,0-.473.336v.022c.008.015.016.03.023.045l.427.068,1.957.606a2.659,2.659,0,0,0,1.035.313.771.771,0,0,0,.45-.313c-.014-.082-.008-.068-.045-.112-.126-.207-.574-.236-.832-.314" fill="#a97500"/>
      <path id="Path_558" data-name="Path 558" d="M90.479,22.13l-.066-.045h-.069a2.135,2.135,0,0,0-1.033,1.121c.327.492,1.136-.782,1.169-1.076" fill="#a97500"/>
      <path id="Path_559" data-name="Path 559" d="M135.478,25.807c-.062.115-.426.643-.224.74.386.189.716-.53.809-.718.222-.447,1.481-2.211,1.35-2.736-.047-.184-.24-.264-.383-.359a.986.986,0,0,0-.608-.246c-.013.023-.029.046-.044.068.035.326.441.689.337,1.1q-.616,1.076-1.236,2.152" fill="#a97500"/>
      <path id="Path_560" data-name="Path 560" d="M128.457,23.588a1.855,1.855,0,0,0,.383.29h.114a2.5,2.5,0,0,0,.268-1.1l-.133-.112c-.061-.009-.122-.016-.181-.022-.344.208-.468.368-.452.941" fill="#a97500"/>
      <path id="Path_561" data-name="Path 561" d="M91.334,22.87l-.449.27v.089c.619.268.7.076,1.035.672a.81.81,0,0,1,.135.494c-.1.188-.2.375-.292.561.021.024.045.045.068.067,1.154-.132,1.419-2.21-.5-2.152" fill="#a97500"/>
      <path id="Path_562" data-name="Path 562" d="M122.675,23.183c-.217.122-.6.172-.652.449-.078.415.582.428.9.494a15.473,15.473,0,0,0,2.34.426c.038-.053.076-.1.113-.158.008-.074.015-.149.022-.223-.459-.468-1.611-.326-2.294-.561-.248-.086-.244-.3-.429-.427" fill="#a97500"/>
      <path id="Path_563" data-name="Path 563" d="M88.613,23.543c-.329.179-.692.26-.855.6.172.351.372.208.787.336l.472.449,1.666,2.511q.3.495.608.987c.094.43-.343.617-.226,1.076.461.3.638.041,1.035-.134q.023-.067.045-.134c-.822-.39,0-.542-.09-1.122-.12-.231-.239-.464-.36-.7l-1.439-2.129a5.958,5.958,0,0,0-.765-1.076c-.221-.2-.705-.154-.923-.359.038-.083.075-.164.112-.247l-.066-.067" fill="#a97500"/>
      <path id="Path_564" data-name="Path 564" d="M131.157,23.745c.009-.031.016-.061.024-.09l-.112-.089c-.061-.009-.122-.015-.181-.022-.2.114-.322.129-.427.335.134.3.61.078.7-.133" fill="#a97500"/>
      <path id="Path_565" data-name="Path 565" d="M137.142,29.506c-.085.358.213.549.384.673.563.449,1.123.9,1.687,1.345a.956.956,0,0,0,.674.067.281.281,0,0,0,.2-.178c.007-.038.016-.075.023-.113-.377-.4-2.118-1.531-2.2-1.928-.081-.361.332-.681.472-.874l1.506-2.22c.161-.224.738-.707.562-1.121a1.7,1.7,0,0,0-1.013-.674c-.029.038-.06.075-.088.113-.082.36.582.651.359,1.165l-2.566,3.745" fill="#a97500"/>
      <path id="Path_566" data-name="Path 566" d="M78.87,44.845a31.039,31.039,0,0,0-2.924,7.064q-.326,1.289-.652,2.577c-.064.432.224.858.112,1.392-.094.449-.463.733-.608,1.188-.167.521.213.952.067,1.458-.061.214-.262.274-.314.583-.03.584-.06,1.166-.089,1.75a12.467,12.467,0,0,0,0,3.184c.091.532.013,1.062.089,1.524v.628c.223,1.266.262,2.55.539,3.767a46.426,46.426,0,0,0,2.274,7.49c.075.183.261.252.359.4.143.291.286.583.428.874q.36.6.72,1.211c.09.18-.09.292-.045.493l.315.651a31.085,31.085,0,0,0,6.66,8.79c.221.2.27.544.472.762a23.873,23.873,0,0,0,2.946,2.6A39.5,39.5,0,0,0,98.8,98.684c1.218.483,2.451.783,3.758,1.212a50.051,50.051,0,0,0,5.535,1.188l1.957.18a14.636,14.636,0,0,0,3.69.133h1.124l2.79-.133q1.341-.159,2.679-.315l3.173-.628a37.34,37.34,0,0,0,13.086-6.232c.486-.389.436-.3.921-.686.459-.367.126-.339-.284-.024-.635.489-1.3.858-1.97,1.306a36.567,36.567,0,0,1-8.47,4.156,45.272,45.272,0,0,1-6.771,1.525c-1.01.2-2.012.074-3.084.246-.747.121-1.658-.078-2.475.067a4.957,4.957,0,0,1-1.485,0h-1.3c-1.1-.2-2.321-.195-3.353-.4a45.458,45.458,0,0,1-7-1.638,44.045,44.045,0,0,1-10.3-5.314c-1.047-.747-1.974-1.643-2.969-2.443a31.4,31.4,0,0,1-4.77-5.359,40.709,40.709,0,0,1-5.423-9.709l-1.035-3.14a43.988,43.988,0,0,1-1.013-4.978A34.265,34.265,0,0,1,75.9,56.123a41.185,41.185,0,0,1,1.642-6.3A39.23,39.23,0,0,1,93.428,29.911a36.14,36.14,0,0,1,11.518-5.069v-.089l-.2-.022-1.214.291-2.452.74A41,41,0,0,0,95.2,28.341a45.745,45.745,0,0,0-6.48,4.35q-.777.693-1.552,1.391a16.969,16.969,0,0,0-2.543,2.511c-.93,1.152-2.036,2.181-2.879,3.43-1.047,1.548-1.906,3.164-2.88,4.822" fill="#a97500"/>
      <path id="Path_567" data-name="Path 567" d="M106.612,25.7a43.569,43.569,0,0,0-9.789,3.632c-.849.453-2.465,1.5-3.3,2.08-.4.275-.156.217.074.086.191-.109.4-.245.635-.387a37.1,37.1,0,0,1,11.569-4.65c1.245-.3,2.443-.4,3.8-.628.855-.146,1.91-.09,2.813-.269h1.146a6.716,6.716,0,0,1,1.869.045l1.326.044c1.5.3,3.029.295,4.432.629a43.823,43.823,0,0,1,11.992,4.485A41.659,41.659,0,0,1,137.75,33.9a15.588,15.588,0,0,0,2.137,1.84h1.148c.029-.037.059-.074.09-.111a7.33,7.33,0,0,0-1.6-1.525c-1.149-.914-2.238-1.851-3.488-2.691a42.094,42.094,0,0,0-22.657-6.571l-2.159.136c-1.579.306-3.141.341-4.612.717" fill="#a97500"/>
      <path id="Path_568" data-name="Path 568" d="M93.314,25.336c-.215.139-.469.234-.674.36v.089c.007.007.014.016.022.022,1.262-.219,1.265.883,1.979,1.278a1.674,1.674,0,0,0,1.733-.449c-.223-.1-.632.228-.967.046-.827-.451-.629-1.356-2.093-1.347" fill="#a97500"/>
      <path id="Path_569" data-name="Path 569" d="M130.325,25.941a9.136,9.136,0,0,0,2.3,1.166.459.459,0,0,0,.585-.2c.117-.322-.323-.417-.518-.515a5.359,5.359,0,0,0-2.16-.83l-.2.179v.2" fill="#a97500"/>
      <path id="Path_570" data-name="Path 570" d="M85.867,26.367l-.113-.066c-.679.444-1.149.709-1.349,1.637-.43,1.98,1.521,4.175,3.374,3.812a6.2,6.2,0,0,0,1.3-.538c.016-.031.031-.059.046-.089-.015-.016-.03-.031-.046-.045a3.018,3.018,0,0,1-3.914-3.542,3.52,3.52,0,0,1,.7-1.167" fill="#a97500"/>
      <path id="Path_571" data-name="Path 571" d="M134.353,26.861h-.135c-.174.082-.5.059-.564.247-.123.379.533.7.72.831.719.508,1.437,1.373,2.635,1.345l.133-.134c-.054-.393-.537-.556-.809-.742a8.251,8.251,0,0,1-1.98-1.546" fill="#a97500"/>
      <path id="Path_572" data-name="Path 572" d="M86.3,27.354c.007.023.015.045.021.067A3.152,3.152,0,0,1,88.679,29.6c.087.344-.129.543-.178.785V30.4c.5.345.989-.582.853-1.21a2.906,2.906,0,0,0-2.722-2.153c-.145.09-.285.129-.337.314" fill="#a97500"/>
      <path id="Path_573" data-name="Path 573" d="M142.769,27.04a8.54,8.54,0,0,0-.384,1.615,25.235,25.235,0,0,0-1.148,5.292c.1.242.261.316.472.448a12.441,12.441,0,0,0,3.624-1.323c.238-.106.414-.353.7-.4.023-.03.044-.061.067-.09-.265-.018-.675.3-.921.4a7.264,7.264,0,0,1-3.04.918c-.035-.044-.073-.088-.112-.133a7.381,7.381,0,0,1,.293-2.018c.276-1.062.389-2.027.676-3.05a7.492,7.492,0,0,0,.4-1.435c-.029-.038-.06-.075-.09-.112l-.539-.112" fill="#a97500"/>
      <path id="Path_574" data-name="Path 574" d="M105.825,28.611h-.136a1.092,1.092,0,0,0-.36,1.771l1.35,1.659c.819,1.187,1.726,2.265,2.565,3.453.212.3.924.469,1.124.089-.023-.318-.846-1.064-1.057-1.345l-2.318-3.049c-.584-.749-1.252-1.211-1.08-2.466-.031-.038-.06-.076-.089-.112" fill="#a97500"/>
      <path id="Path_575" data-name="Path 575" d="M146.729,29.53l-.228-.023a2.037,2.037,0,0,0-.585.562c-.089.144-.074.308-.178.425a17.914,17.914,0,0,1-2.5,2.333c.013.045.029.089.046.135.691-.138,2.672-2.137,3.17-2.691.143-.159.152-.422.317-.561-.008-.037-.017-.075-.025-.112l-.02-.068" fill="#a97500"/>
      <path id="Path_576" data-name="Path 576" d="M80.9,29.8q-.834.863-1.665,1.727c-.311.31-.723.5-.72,1.121l.091.113a6.044,6.044,0,0,1,.944.089q1.754,1.48,3.51,2.959c.232.312.134.9.383,1.233a.885.885,0,0,0,.45.024.515.515,0,0,0,.247-.314c-.021-.208-.14-.265-.179-.427-.084-.344.023-.626-.134-.874l-2.25-1.906c-.43-.337-.841-.941-1.373-1.143l-.787-.046-.18-.156c.056-.4.4-.576.63-.808a17.1,17.1,0,0,1,1.643-1.7V29.6l-.137-.023L80.9,29.8" fill="#a97500"/>
      <path id="Path_577" data-name="Path 577" d="M120.517,31.435c.282-.352.993-.818,1.011-1.367l-.111-.2a26.064,26.064,0,0,0-5.086-.134,13.7,13.7,0,0,1-2.047-.09h-2.138c-1.492,0-3.081-.009-4.5-.044a.574.574,0,0,0-.2.224v.156l.112.135,4.14.022a23.048,23.048,0,0,0,3.666.09h4.86a1.824,1.824,0,0,0,.428.089.312.312,0,0,1,.09.247l-2.452,2.8-2.138,2.49c-.132.176-.4.649-.2.987a1.23,1.23,0,0,0,.584.471H141.3l.585.628q.011,6.166.023,12.333V86.777c-.246.3-.5.6-.743.9V87.7c.581.346,1.371-.485,1.463-.83V37.311c-.169-.523-.892-.4-1.577-.4H118.536c-.679,0-1.294.047-1.642-.27-.673-.612.443-1.5.764-1.883l2.859-3.319" fill="#a97500"/>
      <path id="Path_578" data-name="Path 578" d="M82.178,32.2l.068.067a2.71,2.71,0,0,0,.855-.583c.489-.659-.132-1.272-.855-1.256-.363.141-.517.072-.741.315l.044.089.517.022a.753.753,0,0,1,.361,1.1l-.248.247" fill="#a97500"/>
      <path id="Path_579" data-name="Path 579" d="M109.491,30.741a.512.512,0,0,0-.336-.067.835.835,0,0,0-.474.583c-.1.379.836,1.108,1.057,1.346q1.159,1.164,2.318,2.332a5.5,5.5,0,0,0,1.327,1.3c.45.245.757-.051,1.013-.248V35.9a7.246,7.246,0,0,1-1.6-1.413q-1.1-1.1-2.2-2.2c-.418-.417-1.128-.771-1.1-1.547" fill="#a97500"/>
      <path id="Path_580" data-name="Path 580" d="M148.73,31.211c.007-.022.014-.044.023-.068a.482.482,0,0,0-.315-.156c-.195.113-.376.147-.473.359-.035.155.2.22.381.224a.54.54,0,0,0,.383-.359" fill="#a97500"/>
      <path id="Path_581" data-name="Path 581" d="M113.991,34.328l.136.111c.372-.035.534-.373.741-.582a16.289,16.289,0,0,0,1.71-1.749c-.013-.052-.029-.1-.045-.157a.426.426,0,0,0-.4-.246A17,17,0,0,1,113,31.75c-.425,0-.958-.088-1.1.2-.006.052-.013.1-.022.157.046.037.092.075.134.113l3.714.044c.023.029.046.06.068.089v.068c-.375.482-1.642,1.352-1.8,1.906" fill="#a97500"/>
      <path id="Path_582" data-name="Path 582" d="M84.337,32.782c.009.015.015.029.023.044,1.136.114,1.234.837.607,1.613l.068.09c.263-.029.252-.175.406-.292.192-.148.417-.183.541-.4.013-.166.029-.33.044-.494,0-.684-.353-.942-1.058-.919a2.4,2.4,0,0,0-.63.337v.022" fill="#a97500"/>
      <path id="Path_583" data-name="Path 583" d="M145.31,35.158v.09c.023.007.044.013.067.022a30.877,30.877,0,0,0,4.006-2.668v-.09l-.067-.046h-.066l-3.939,2.67v.022" fill="#a97500"/>
      <path id="Path_584" data-name="Path 584" d="M151.024,37.176l-3.171.763-.046-.022c-.159-.275.143-.709.246-.965a13.445,13.445,0,0,0,1.081-2.982c-.03-.044-.058-.09-.09-.134h-.137c-.805.741-1.006,2.163-1.506,3.205-.154.324-.5.856-.4,1.234a.447.447,0,0,0,.359.112l2.857-.695a2.055,2.055,0,0,1,1.126-.18c.021.009.044.015.065.024a.56.56,0,0,1,.023.067,10.842,10.842,0,0,1-2.25,2.041c.008.023.014.046.023.068s.029.045.047.067a10.666,10.666,0,0,0,2.968-2.512c-.072-.46-.828-.171-1.192-.09" fill="#a97500"/>
      <path id="Path_585" data-name="Path 585" d="M77.025,35.18c.008-.022.016-.044.022-.067-.065-.054-.07-.065-.2-.068-.632.423-2.577,1.844-1.756,3.14.174.274.684.389.968.56q1.17.707,2.34,1.413a1.827,1.827,0,0,1,.719.807c.136.392-.042.954.45.986.777-.777.193-1.776-.517-2.264l-2.273-1.346-.923-.516c-.726-.951.71-2.332,1.17-2.646" fill="#a97500"/>
      <path id="Path_586" data-name="Path 586" d="M145.288,36.974c.127-.112.256-.223.382-.337v-.089q-.28-.191-.563-.38c-.12-.185-.116-.5-.225-.673l-.449-.022-.179.089c-.35.569.4,1.584,1.034,1.412" fill="#a97500"/>
      <path id="Path_587" data-name="Path 587" d="M77.993,37.647c.372.174.6-.29.741-.517.1-.155.3-.332.317-.561.044-.579-.644-.988-1.26-.965a1.087,1.087,0,0,0-.586.292v.068c.448.2,1.334.326,1.058,1.121-.073.209-.243.277-.27.561" fill="#a97500"/>
      <path id="Path_588" data-name="Path 588" d="M87.082,36.951c-.031-.029-.061-.059-.091-.089-.179.2-.36.4-.539.606q-.012,1.254-.021,2.511V84.423c0,1.116-.213,2.528.517,2.937l.068.044h.022a19.263,19.263,0,0,0,.067-3.43V75.116q-.01-19.08-.022-38.164" fill="#a97500"/>
      <path id="Path_589" data-name="Path 589" d="M89.692,36.907c-.529,0-1.269-.1-1.529.179.007.052.015.1.022.157a4.322,4.322,0,0,0,1.485.067h20.474c.544,0,1.237.132,1.281-.381a.478.478,0,0,0-.315-.067,4.482,4.482,0,0,1-1.438.045H89.692" fill="#a97500"/>
      <path id="Path_590" data-name="Path 590" d="M82.11,38.118a6.992,6.992,0,0,0,.923-.358c.021-.031.044-.061.067-.09-.008-.022-.015-.044-.023-.068l-.922.024a6.59,6.59,0,0,0-1.6-.4,2.937,2.937,0,0,0-.63.381v.024c.007.013.015.03.023.044a9.237,9.237,0,0,0,2.16.448" fill="#a97500"/>
      <path id="Path_591" data-name="Path 591" d="M143.6,38.364h-.068a3.439,3.439,0,0,0,0,1.592q.562.764,1.125,1.525c.682,1.012,1.306,2.078,1.935,3.14.458.774.773,1.6,1.17,2.421a36.5,36.5,0,0,1,2.386,6.57c.33,1.262.4,2.493.674,3.857a20.748,20.748,0,0,1,.314,4.014q.012.538.023,1.076-.011.74-.023,1.48-.157,1.693-.314,3.387c-.343,1.692-.569,3.329-.989,4.933a33.935,33.935,0,0,1-1.8,4.978,36.54,36.54,0,0,1-2.992,5.427l-1.462,2.063v.784c.031.021.061.044.09.066a5.676,5.676,0,0,0,1.215-1.524,38.12,38.12,0,0,0,2.971-4.708,35.882,35.882,0,0,0,2.924-7.175,58.108,58.108,0,0,0,1.08-5.719c.142-.8.117-1.75.27-2.6v-.808a11.07,11.07,0,0,0-.047-3.227c-.013-.389-.029-.779-.044-1.167q-.2-1.58-.4-3.163a38.864,38.864,0,0,0-4.364-11.905,42.193,42.193,0,0,0-2.813-4.261,5.16,5.16,0,0,0-.853-1.054" fill="#a97500"/>
      <path id="Path_592" data-name="Path 592" d="M89.445,86.418c.487.3,2.259.135,3.037.135h44.93c.962,0,2.591.216,3.083-.292-.008-.045-.015-.09-.023-.135a2.955,2.955,0,0,0-1.057-.067H90.3l-.112-.089q-.012-23.52-.024-47.045c-.029-.037-.059-.074-.089-.111-.165-.008-.331-.016-.5-.023-.276.283-.135,2.338-.135,2.959V86.418" fill="#a97500"/>
      <path id="Path_593" data-name="Path 593" d="M90.952,39.508c-.007.075-.015.149-.022.225l.089.112,48.058.022.113.089q.01,4.261.023,8.521a15.237,15.237,0,0,0,.09,3.162.6.6,0,0,0,.63-.09,6.751,6.751,0,0,0,.045-1.323V39.508c-.038-.037-.073-.074-.112-.112l-48.8-.022-.112.134" fill="#a97500"/>
      <path id="Path_594" data-name="Path 594" d="M149.27,41.571a.708.708,0,0,0-.021-.427,11.967,11.967,0,0,0-1.284-1.3c-.161.125-.369.175-.5.336-.042.308.99,1.408,1.239,1.592a.486.486,0,0,0,.563-.2" fill="#a97500"/>
      <path id="Path_595" data-name="Path 595" d="M73.223,39.867a8.225,8.225,0,0,0-1.508,2.826.436.436,0,0,1,.023.045c.538.308.932-.557,1.642-.4a9.579,9.579,0,0,1,2.677,1.3c.349.209.913.331,1.125.673a1.149,1.149,0,0,0-.2.649c.16.12.546.373.833.2a.4.4,0,0,0,.247-.336.447.447,0,0,0-.27-.247c-.123-.3.273-.4.157-.694a4.936,4.936,0,0,0-1.034-.606,11.338,11.338,0,0,0-2.949-1.39c-.67-.135-.835.359-1.394.4-.015-.022-.03-.046-.046-.067-.068-.3.919-1.7.99-2.222a.479.479,0,0,0-.292-.134" fill="#a97500"/>
      <path id="Path_596" data-name="Path 596" d="M151.968,41.145c.262.326,1.178.454.609,1.324-.365.5-1.242.061-1.35-.359s.262-.945.382-1.211v-.022c-.052-.016-.1-.03-.157-.045-.269.181-.607.275-.743.582-.582,1.325,1.687,2.243,2.25,1.257a.261.261,0,0,0-.2-.136v-.089c1.475-.31-.45-2.51-.79-1.3" fill="#a97500"/>
      <path id="Path_597" data-name="Path 597" d="M125.647,41.213c-.047-.051-.032-.044-.112-.068-.215.15-.552.164-.677.4a.361.361,0,0,1-.024.046c.037.031.077.06.115.09.354.157.633-.24.7-.471" fill="#a97500"/>
      <path id="Path_598" data-name="Path 598" d="M152.031,44.077c-.008.022-.016.046-.023.068.453-.04,3.159-1.251,3.472-1.856a.5.5,0,0,0-.248-.471c-.046-.009-.091-.015-.136-.022-.581.336-.1.4-.4.852s-2.3,1.194-2.662,1.429" fill="#a97500"/>
      <path id="Path_599" data-name="Path 599" d="M118.694,47.648q1.417-2.747,2.834-5.493c-.037-.054.019-.146-.082-.223-.2-.038-.227.05-.323.042a5.738,5.738,0,0,0-1.034,1.772l-2.206,4.192a5.009,5.009,0,0,1-.787.584.493.493,0,0,0-.089.514c.022.016.044.031.068.046.311.1.774-.319,1.079-.381.683-.14,1.878,1.027,2.3.157.007-.037.014-.074.022-.112v-.022a5,5,0,0,0-.5-.135l-.628-.359c-.535-.191-1.085.172-1.418.314-.015-.007-.029-.015-.046-.021a.355.355,0,0,1-.046-.179c.269-.258.632-.393.857-.7" fill="#a97500"/>
      <path id="Path_600" data-name="Path 600" d="M104.676,42.715a1.937,1.937,0,0,0-1.6-.695l-.36.067c-.022.052-.044.1-.066.156.29.375,1.122.468,1.282.942q-.045,2.165-.089,4.328l.11.066c.213-.062.455-.082.563-.246.4-.6-.019-2.266.137-3.139a3.754,3.754,0,0,0,.021-1.48" fill="#a97500"/>
      <path id="Path_601" data-name="Path 601" d="M96.555,46.706a.377.377,0,0,0,.225.247l.133-.022c.3-.141.4-.577.541-.875l1.215-2.489c-.006-.511-.752-.585-1.1-.74a.623.623,0,0,1,.2-.493v-.09l-.09-.088h-.135c-.857.485-1.2,1.318.2,1.457.245.333-.087.585-.225.919l-.967,2.176" fill="#a97500"/>
      <path id="Path_602" data-name="Path 602" d="M129.11,49.89a2.643,2.643,0,0,0,1.1-.022c.861-.16,1.779-.05,2.564-.2.023-.054.046-.1.069-.157-.564-.564-2.889.326-3.2-.269-.008-.052-.014-.1-.022-.157a3.669,3.669,0,0,1,.9-.628,17.471,17.471,0,0,0,0-3.5c0-.3.1-1.076-.091-1.21-.384-.272-1.521-.113-2.115-.113l-.494-.022c-.3-.182-.074-1.029-.428-1.3-.068-.008-.135-.016-.2-.022-.434.282-.44,1.349-.111,1.793.787.188,1.908-.112,2.588.135.294.509-.006,2.591.111,3.362.007.344.015.688.023,1.033l-.991.717a.579.579,0,0,0,.293.561" fill="#a97500"/>
      <path id="Path_603" data-name="Path 603" d="M93.809,43.746a3,3,0,0,0-.7-.561c-.233-.179-.421-.618-.743-.673a1.508,1.508,0,0,0-.54.359c.059.711.9.814,1.214,1.279q.282.628.563,1.255.765,1.39,1.53,2.781a3.412,3.412,0,0,0,.923,1.278.644.644,0,0,0,.5-.427,9.232,9.232,0,0,0-.9-1.636l-1.372-2.578-.473-1.076" fill="#a97500"/>
      <path id="Path_604" data-name="Path 604" d="M112.124,47.491c.052.03.1.059.157.088.6-.015.623-.824.764-1.3.116-.393.795-2.182.472-2.689-.118-.188-.421-.3-.608-.428.037-.234.282-.484.023-.6l-.112-.023c-.268.176-.8.534-.742.988.045.348.906.16.719,1.076a14.679,14.679,0,0,0-.674,2.893" fill="#a97500"/>
      <path id="Path_605" data-name="Path 605" d="M109.155,44.1q-.5-.447-.99-.9c-.157-.23-.039-.594-.406-.628-.135.03-.271.059-.4.09-.561.882.721,1.393.99,1.794q.259.649.518,1.3.9,1.67,1.8,3.341c.226.4.937,1.538,1.395.583l.023-.113a10.77,10.77,0,0,1-1.3-2.13,16.564,16.564,0,0,1-1.463-2.78c-.054-.186-.106-.374-.157-.561" fill="#a97500"/>
      <path id="Path_606" data-name="Path 606" d="M125.691,44.284l.18-.158a1.169,1.169,0,0,0-.563-1.256c-.45,0-.847-.034-1.3-.034a3.981,3.981,0,0,0-.829-.09c-.023.022-.149.057-.17.08.027.917.991.272,1.641.561.351.154.535.989,1.036.9" fill="#a97500"/>
      <path id="Path_607" data-name="Path 607" d="M134.279,44.083c0-.165-.146-.129-.2-.2l-.766-.023c-.6.072-1.006-.016-1.08.382,0,.1.062.136.2.136.525-.023.982-.046,1.508-.069.164-.032.278-.071.331-.224" fill="#a97500"/>
      <path id="Path_608" data-name="Path 608" d="M122.293,45.63a.664.664,0,0,0,.449.022c.088-.081.228-.147.181-.359-.1-.143-.21-.284-.313-.426-.193-.343-.153-.673-.452-.9-.076-.007-.1-.077-.225-.022a1.162,1.162,0,0,0,.36,1.683" fill="#a97500"/>
      <path id="Path_609" data-name="Path 609" d="M152.465,45.517c.007.03.015.061.021.091a1.249,1.249,0,0,0,.587-.2c.788-.321,2.117-.88,2.282-.929s.793.518,1.046.414.18-.209.271-.315v-.112c-.136-.116-.469-.489-.631-.517-.99.649-2.672.863-3.576,1.57" fill="#a97500"/>
      <path id="Path_610" data-name="Path 610" d="M150.866,44.33a1,1,0,0,0-.674-.338c-.053.045-.1.09-.158.135a13.735,13.735,0,0,0,1.215,3.408c.116.238.206.779.451.875.212.084.584-.237.652-.336.084-.155-.345-.807-.428-1.032q-.528-1.357-1.058-2.713" fill="#a97500"/>
      <path id="Path_611" data-name="Path 611" d="M71.355,44.284c-.067.015-.134.029-.2.045a7.06,7.06,0,0,0-.921,2.085.734.734,0,0,0,.2.695H70.5A1.588,1.588,0,0,0,71,46.594v-.539c.13-.562.576-1.052.608-1.659-.045-.03-.09-.061-.135-.09l-.113-.023" fill="#a97500"/>
      <path id="Path_612" data-name="Path 612" d="M71.243,46.459c-.039.32,1.408.139,1.666.674.124.329-.443,1.632-.562,1.972a.857.857,0,0,0,.45.247,6.674,6.674,0,0,0,.9-2.624,2.949,2.949,0,0,0-2.07-.538c-.194.028-.353.028-.383.269" fill="#a97500"/>
      <path id="Path_613" data-name="Path 613" d="M122.474,46.931c.265.135.185.578.449.717a.528.528,0,0,0,.608-.156,1.733,1.733,0,0,0-.181-.965,9.075,9.075,0,0,0-2.36-.157c-.171.107-.294.171-.338.4.007.023.016.044.023.068.45.213,1.3-.1,1.8.089" fill="#a97500"/>
      <path id="Path_614" data-name="Path 614" d="M158.382,46.908c-.075-.078-.083-.115-.224-.135-.579.334-.466.4-.652,1.1.021.03.043.061.068.09a.9.9,0,0,0,.809-1.053" fill="#a97500"/>
      <path id="Path_615" data-name="Path 615" d="M74.8,47.558c.233.237,1,.372,1.1.7.007.2.013.4.022.606l.18.112h.112a1.587,1.587,0,0,0,.359-1.21,2.929,2.929,0,0,0-1.551-.627c-.177.025-.272.184-.225.424" fill="#a97500"/>
      <path id="Path_616" data-name="Path 616" d="M104.9,48.612c.524-.1,1.129.173,1.327-.247a.163.163,0,0,0-.067-.225,15.065,15.065,0,0,1-2.139.068c-.468-.114-.317-.45-1.057-.448-.117.068-.179.084-.248.2.068.909,1.343.814,2.184.651" fill="#a97500"/>
      <path id="Path_617" data-name="Path 617" d="M123.442,48.792c.1-.015.193-.031.292-.045.491.094,1.008.294,1.552.449a.45.45,0,0,0,.27-.471,2.636,2.636,0,0,0-1.6-.427H123.1c-.394-.1-.321-.455-.9-.448-.179.084-.281.078-.4.2.023.216.129.272.226.4.262.346.769.383,1.419.337" fill="#a97500"/>
      <path id="Path_618" data-name="Path 618" d="M69.533,48.388a5.294,5.294,0,0,0-.968,2.915l.091.045c.037.007.075.014.112.023l.495-.472q.068-.383.135-.762.258-.808.518-1.614c-.045-.038-.091-.075-.135-.113l-.248-.022" fill="#a97500"/>
      <path id="Path_619" data-name="Path 619" d="M154.511,50.832v.089c.269.117,1.156-.3,1.44-.4l2.565-.83c.255-.034.342.216.676.224.052-.06.1-.119.158-.179q.01-.181.023-.358a.286.286,0,0,0-.293-.135,5.039,5.039,0,0,1-.9.291q-1.429.492-2.857.987a3.065,3.065,0,0,0-.811.314" fill="#a97500"/>
      <path id="Path_620" data-name="Path 620" d="M69.488,50.765c-.055.246.758.335,1.012.425l2.61.808a4.041,4.041,0,0,1,.788.247c.036.284.074.567.112.852a.858.858,0,0,0,.7.112.394.394,0,0,0,.2-.358c-.124-.175-.3-1.082-.36-1.121q-.7-.18-1.4-.358c-.572-.2-1.189-.336-1.8-.539A4.27,4.27,0,0,0,70,50.451a.434.434,0,0,0-.516.314" fill="#a97500"/>
      <path id="Path_621" data-name="Path 621" d="M93.787,52.335a34.9,34.9,0,0,1,5.332,0h1.53a7.358,7.358,0,0,0,2.588,0c.583-.111,1.2,0,1.708-.09a7.151,7.151,0,0,1,2.07,0,7.75,7.75,0,0,0,1.665-.179,7.924,7.924,0,0,1,3.016.27l2.25.044,2.408-.044a12.855,12.855,0,0,0,2.247.134h.788a3.538,3.538,0,0,1,.743-.089h3.351a5.6,5.6,0,0,1,1.43-.213.674.674,0,0,1,.3.1,1.069,1.069,0,0,0,.772-.143c.023-.007.229-.029.311.077a14.142,14.142,0,0,0,1.936.134,9.3,9.3,0,0,0,2.992.134h.023l.044.09c-.2.236-.472.368-.538.739.171.272.714.265.808.606.105.375-.061.933.046,1.435a6.53,6.53,0,0,1,.181,1.368c-.091.216-.181.433-.271.649-.252.384-.834.564-1.035.965-.007.059-.015.119-.022.178a3.783,3.783,0,0,0,2.5.538,7.654,7.654,0,0,0,2.639-.432c.023-.038.365-.178.388-.216.453-.257.258-.507.258-.515a3.5,3.5,0,0,1-1.421.6,9,9,0,0,1-3.529-.358V58.03c.336-.428.875-.636,1.126-1.165a6.228,6.228,0,0,0-.09-2.624c.008-.24.015-.479.021-.718a1.138,1.138,0,0,0-.7-.516c-.023-.03-.045-.059-.067-.089.071-.543.794-.769,1.528-.627a24.131,24.131,0,0,0,4.163.179,4.2,4.2,0,0,1,1.913.179q.023,5.236.044,10.471l.115.136.494.022c.037-.031.076-.06.113-.09q.012-4.1.022-8.208a10.969,10.969,0,0,0-.09-2.937,16.973,16.973,0,0,0-2.5-.067,11.2,11.2,0,0,0-1.889,0l-2.543-.045c-.364.065-.905-.035-1.328.045a6.236,6.236,0,0,1-1.888.044c-.877-.166-1.872-.141-2.836-.313-.337-.061-.674.072-.9.022a3.731,3.731,0,0,0-1.126-.068l-.99.27h-1.013a22.162,22.162,0,0,0-3.149.045l-.654-.045a7.543,7.543,0,0,1-2.024-.089q-1.876.022-3.756.045a29.219,29.219,0,0,0-3.466-.338c-.249.1-.576.011-.9.067a14.5,14.5,0,0,1-2.273.135h-1.1c-.476.1-1.207,0-1.8.09a7.92,7.92,0,0,1-2.475,0c-.5-.089-1.13.038-1.574-.046h-.856a9.991,9.991,0,0,0-2.475,0H94.664l-1.484.18c-.766.105-1.372-.31-2.115-.315-.037.046-.075.09-.112.135-.007.091-.015.18-.022.269.61.618,1.923.274,2.857.27" fill="#a97500"/>
      <path id="Path_622" data-name="Path 622" d="M159.373,52.559a1.915,1.915,0,0,0-.451.471v.112c.007.023.016.045.023.067a.671.671,0,0,0,.7-.4c.009-.053.014-.1.023-.157l-.112-.068-.18-.021" fill="#a97500"/>
      <path id="Path_623" data-name="Path 623" d="M102.224,59.712a3.645,3.645,0,0,0,1.463.112,7.864,7.864,0,0,0,3.487-.606v-.113c-.243-.1-.528.055-.807.083-.427,0-.835.052-1.263.052a6.663,6.663,0,0,1-2.07.067c-.3-.538.731-.851.878-1.234a6.3,6.3,0,0,0-.023-1.883c-.3-1.594.48-3.066-1.53-3.05l-.067-.135a.6.6,0,0,0,.134-.29.262.262,0,0,0-.158-.068c-.361.176-.77.349-.787.852.4.244,1.026.071,1.305.426a9.775,9.775,0,0,1,.382,3.229c-.008.381-.014.762-.022,1.144-.192.548-1.111.6-.922,1.412" fill="#a97500"/>
      <path id="Path_624" data-name="Path 624" d="M121.6,52.76a.384.384,0,0,0-.271-.067,1.05,1.05,0,0,0-.652.829c.1.173.786.354.99.493a7.526,7.526,0,0,1,.045,2.556V58.3c-.147.838-.782.927-.2,1.7.892.217,2.018-.294,3.059-.088.515.1.945.479,1.4.492,1.213-1.2-1.908-.938-2.679-.9-.329.008-.66.016-.989.022a.485.485,0,0,1-.2-.672c.11-.208.323-.325.385-.606V56.213a10.513,10.513,0,0,0-.024-2.556c-.129-.28-.543-.4-.9-.449l-.067-.09c.037-.112.075-.224.114-.335V52.76" fill="#a97500"/>
      <path id="Path_625" data-name="Path 625" d="M105.779,53.141a1.424,1.424,0,0,0-.383.291v.112a3.247,3.247,0,0,0,1.462.248c.03-.044.062-.09.09-.135-.029-.485-.651-.538-1.169-.516" fill="#a97500"/>
      <path id="Path_626" data-name="Path 626" d="M92.909,60.07a.465.465,0,0,0,.293.247l2.385-.113a.417.417,0,0,0,.248-.223c.007-.053.014-.106.022-.157-.453-.257-1.51.1-2.026-.023l-.157-.157a.278.278,0,0,1,.044-.268c.224-.307.705-.109.878-.629.007-.485.016-.973.023-1.458a15.086,15.086,0,0,0-.181-3.52,3.29,3.29,0,0,0-.45-.113c-.243-.138-.047-.432-.449-.449-.121.059-.24.12-.36.18a.529.529,0,0,0-.045.672c.108.067.489.094.561.2.183.271.046.739.113,1.122a14.625,14.625,0,0,1-.067,3.879c-.281.143-1.15.251-.833.807" fill="#a97500"/>
      <path id="Path_627" data-name="Path 627" d="M126.095,53.59v-.134a2.946,2.946,0,0,0-1.237-.089l-.382.134c-.038.066-.075.135-.113.2.03.046.06.09.091.134.524.108,1.465.109,1.641-.246" fill="#a97500"/>
      <path id="Path_628" data-name="Path 628" d="M67.4,57.469c.817,1.272,1.945,1.087,3.263.47.142-.066.336-.062.45-.134v-.112c-.237-.1-1.277.406-1.958.245a1.578,1.578,0,0,1-.719-2.826c-.06-.568-.139-1.614-.788-1.637a2.243,2.243,0,0,0,.022,1.818c-.139.351-.44.548-.54.964a1.656,1.656,0,0,0,.27,1.211" fill="#a97500"/>
      <path id="Path_629" data-name="Path 629" d="M154.334,57.357a9.607,9.607,0,0,1-.632-2.578c-.088-.391.057-.763-.113-1.031A.682.682,0,0,0,153,53.5l-.134.157a3.047,3.047,0,0,0,.157,1.323v.583c.26,1.3.325,2.476,1.484,2.893.174.061.428.247.676.2l.854-.426c.017-.023.03-.046.046-.067-.119-.075-.338.048-.562,0a1.85,1.85,0,0,1-1.19-.808" fill="#a97500"/>
      <path id="Path_630" data-name="Path 630" d="M113.361,53.748a.451.451,0,0,0-.4-.181,4.4,4.4,0,0,0-.788,1.167.344.344,0,0,0,.293.2,3.4,3.4,0,0,0,.9-1.188" fill="#a97500"/>
      <path id="Path_631" data-name="Path 631" d="M110.144,58.972l.336-.314v-.112c-.249-.139-.588-.027-.718-.292-.121-.331.239-.6.382-.762.26-.3,1.206-1.3,1.237-1.682l-1.665-1.5c-.021-.156-.044-.315-.068-.472-.053-.092-.1-.111-.247-.111-1.637,1.032,1.03,1.745,1.147,2.556l-1.372,1.658a.788.788,0,0,0-.159.785c.139.286.691.263,1.126.247" fill="#a97500"/>
      <path id="Path_632" data-name="Path 632" d="M96.869,55.676c.527-.1,1.215-.66.765-1.368-.27-.427-.707-.472-1.44-.447-.156.088-.323.1-.406.268-.045.066-.023.026,0,.112l.675.046a.935.935,0,0,1,.4,1.3v.091" fill="#a97500"/>
      <path id="Path_633" data-name="Path 633" d="M134.329,56.549c.007.016.016.031.023.045s.031.016.043.022a2.038,2.038,0,0,0,.791-.629,1.72,1.72,0,0,0,.13-.644c0-.753-.264-1.312-.829-1.483h-.608l-.091.044c-.079.1-.145.11-.156.292a1.71,1.71,0,0,1,.944,1.9c-.082.15-.165.3-.248.449" fill="#a97500"/>
      <path id="Path_634" data-name="Path 634" d="M71.918,54.151c.015-.031.029-.06.045-.09l-.045-.045h-.067c-.477.33-1.7.8-1.913,1.3a1.887,1.887,0,0,0,.044.9c-.029.157-.06.313-.089.471v.023a.378.378,0,0,0,.4-.023c.739-.395.1-.94.292-1.524.139-.419.9-.869,1.328-1.009" fill="#a97500"/>
      <path id="Path_635" data-name="Path 635" d="M73.493,54.756c-.167.1-.364.165-.517.269v.067c.17.19.491.225.629.449.2.324-.058.673,0,.964.951.118,1.182-1.786-.112-1.749" fill="#a97500"/>
      <path id="Path_636" data-name="Path 636" d="M158.786,54.756c-.169.1-.324.117-.425.291.006.022.013.045.021.067.166.037.328.076.5.113.454.181.391.868.223,1.3.016.03.03.06.045.089.581.119.977-.728.768-1.433-.116-.383-.591-.45-1.128-.427" fill="#a97500"/>
      <path id="Path_637" data-name="Path 637" d="M155.187,55.294a4.174,4.174,0,0,0-.427.269v.067l.068.045.629.068c.457.2.513.889.292,1.344.025.03.046.06.07.09a1.023,1.023,0,0,0,.651-1.525c-.217-.366-.671-.38-1.282-.359" fill="#a97500"/>
      <path id="Path_638" data-name="Path 638" d="M116.827,55.429v-.067l-.136-.045c-.338.189-.7.262-.856.628-.586,1.405,1.357,2.587,2.139,1.458l-.068-.067c-.394-.143-.808-.023-1.17-.226-.484-.269-.215-1.44.09-1.681" fill="#a97500"/>
      <path id="Path_639" data-name="Path 639" d="M117.59,55.406c-.181.125-.386.148-.54.292.074.38.755-.007.676,1.144.823.392.752-1.444-.136-1.436" fill="#a97500"/>
      <path id="Path_640" data-name="Path 640" d="M159.642,57.559c.009-.023.014-.046.023-.068l-.091-.067c-.766.325-1.463-.347-1.73-.763-.165-.252-.183-.731-.474-.852l-.043.022c-.127.216-.058.457-.114.784-.216,1.255,1.5,1.648,2.429.943" fill="#a97500"/>
      <path id="Path_641" data-name="Path 641" d="M124.589,56.258c-.169.363.4.8.854.7q.294-.167.586-.338c.007-.022.015-.045.022-.067l-.022-.045a3.263,3.263,0,0,0-1.394-.269l-.046.022" fill="#a97500"/>
      <path id="Path_642" data-name="Path 642" d="M73.335,57.963l-.831.291a1.137,1.137,0,0,1-.429-1.076c.044-.162.226-.267.181-.448-.045-.066-.044-.066-.134-.09-.158.124-.347.23-.406.448-.008.089-.014.179-.022.269-.111.113-.225.225-.338.338a1.051,1.051,0,0,0,.428.986c.36.134.574-.294.9-.247.57.085.863.672,1.507.673.644-.588-.428-.934-.856-1.142" fill="#a97500"/>
      <path id="Path_643" data-name="Path 643" d="M111.742,57.492c-.008.022-.016.044-.023.068a14.766,14.766,0,0,0,2.317,1.525c.164-.143.36-.2.382-.493a6.792,6.792,0,0,0-2.293-1.548q-.192.223-.383.449" fill="#a97500"/>
      <path id="Path_644" data-name="Path 644" d="M97.185,59.308a1.8,1.8,0,0,0,2.362,1.121l.2-.2c-.038-.275-1.057-.334-1.328-.538-.913-.687.18-2.519-1.508-2.58-.495.057-.967.015-1.169.427-.007.015-.016.03-.022.046V57.6c.379.211.9-.248,1.283.271.278.377.06.9.18,1.434" fill="#a97500"/>
      <path id="Path_645" data-name="Path 645" d="M145.017,62.874V60.923q.067-1.382.136-2.758c-.341-.347-.729-.327-.945-.83-.06-.007-.122-.016-.181-.022-.21.1-.415.015-.518.223-.225.51.478.817.788.9A19,19,0,0,1,144.254,62c-.009.433-.017.867-.024,1.3-.126.269-.5.342-.629.606-.009.119-.015.239-.024.358.045.053.09.1.137.158a6.681,6.681,0,0,0,2.5-.112v-.181c-.007-.022-.015-.045-.02-.067a9.041,9.041,0,0,0-1.736-.046l-.224-.223c-.007-.03-.015-.059-.023-.09.247-.308.7-.374.809-.829" fill="#a97500"/>
      <path id="Path_646" data-name="Path 646" d="M146.953,58.254c-.186.1-.462.061-.564.246-.013.023-.028.046-.043.068v.023c.337.189.73.066.9.425A2.085,2.085,0,0,1,147.2,60l.068.09a.933.933,0,1,0-.315-1.838" fill="#a97500"/>
      <path id="Path_647" data-name="Path 647" d="M160.182,58.9a1.449,1.449,0,0,0-.314.471l.112.111c.29.128.5-.127.607-.268-.02-.222-.159-.317-.4-.314" fill="#a97500"/>
      <path id="Path_648" data-name="Path 648" d="M77.61,65.99c.3.629,2.683.247,3.51.247.549,0,1.591-.009,1.875-.34.262-.556-.333-.106-.5-.086a4.889,4.889,0,0,1-.992.022H79.455c-.195.029-.391.059-.585.09a.832.832,0,0,1-.539-.338c-.08-.257.548-.69.63-1.1a8.225,8.225,0,0,0-.046-1.794,17.107,17.107,0,0,0-.045-2.938,3.118,3.118,0,0,0-.5-.135c-.251-.114-.207-.33-.157-.583l-.067-.044h-.068a3.907,3.907,0,0,0-.629.427.693.693,0,0,0,.022.426c.123.268.41.239.652.381q.034,1.559.068,3.117v1.547c-.088.361-.824.641-.585,1.1" fill="#a97500"/>
      <path id="Path_649" data-name="Path 649" d="M70.275,59.376v-.023l-.157-.045c-.344.234-.743.373-.9.784-.284.748.537,1.555,1.014,1.66a1.42,1.42,0,0,0,1.192-.359v-.067c-.145-.058-.228.047-.429,0-.725-.168-1.408-.5-1.057-1.435.113-.172.224-.344.337-.515" fill="#a97500"/>
      <path id="Path_650" data-name="Path 650" d="M71.311,60.855a.743.743,0,0,0,.5-.247c.136-.5-.148-1.14-.631-1.187a3.239,3.239,0,0,0-.472.269V59.8c.335.2.724.4.518.942l.09.112" fill="#a97500"/>
      <path id="Path_651" data-name="Path 651" d="M154.4,64.488c.287.073.632-.005.7-.27-.105-.314-.209-.628-.314-.942v-.583c-.118-.612-.1-1.338-.226-1.906-.1-.461.041-.851-.112-1.233-.023-.037-.044-.074-.068-.112h-.136c-.195.123-.488.163-.539.427a6.677,6.677,0,0,0,.181,1.187v.651c.173.953.052,2.132.518,2.781" fill="#a97500"/>
      <path id="Path_652" data-name="Path 652" d="M147.807,63.545a1.68,1.68,0,0,0,2.2,1.055c.066-.088.1-.09.112-.247-.129-.08-.29-.054-.472-.113a1.729,1.729,0,0,1-.945-.718c-.543-.909.3-2.272-1.35-2.264-.6.03-.991.255-.922.449,0,.031.825-.1,1.17.359.288.383.063.889.2,1.479" fill="#a97500"/>
      <path id="Path_653" data-name="Path 653" d="M160.858,61.639c-.114-.242-.706-.374-1.036-.381a2.192,2.192,0,0,0-.7.135c-.155.079-.074.134-.112.2.031.044.059.089.089.135.384.063.821.038,1.013.29.1.562-.11,1.235.135,1.705.325.094.964-.013.923-.359a.347.347,0,0,0-.18-.045c-.278-.425.058-1.312-.134-1.683" fill="#a97500"/>
      <path id="Path_654" data-name="Path 654" d="M155.958,61.813c-.137.109-.046.147-.069.221.039.037.078.075.115.113.388-.016.8-.179,1.041.029.213.531.112,1.1.447,1.506.338.026.941-.207.832-.538a.36.36,0,0,0-.187-.008c-.358-.36-.18-1.159-.442-1.483-.161-.216-.774-.1-1.1-.043-.325.109-.5.093-.639.2" fill="#a97500"/>
      <path id="Path_655" data-name="Path 655" d="M72.705,63.658a2.883,2.883,0,0,0,.63-1.86c-.03-.037-.058-.076-.09-.113l-.54-.022a12.509,12.509,0,0,0-.337,1.86l.136.113.2.021" fill="#a97500"/>
      <path id="Path_656" data-name="Path 656" d="M70.141,62.559c-.045-.037-.09-.075-.137-.112l-.179-.022c-.5.293-.477.451-.359,1.076-.015.187-.029.374-.045.56.78.09.743-.709.72-1.5" fill="#a97500"/>
      <path id="Path_657" data-name="Path 657" d="M66.856,62.448l-.2.112a9.585,9.585,0,0,0,.068,2.826,11.4,11.4,0,0,0,.09,1.211,1.1,1.1,0,0,0,.472.628l.181-.045a.6.6,0,0,0,.269-.583c-.089-.156-.18-.313-.269-.471a4.181,4.181,0,0,1-.112-.538v-.695c-.062-.262-.077-.81-.136-1.121-.1-.508.127-1.044-.2-1.3l-.157-.022" fill="#a97500"/>
      <path id="Path_658" data-name="Path 658" d="M130.19,64.443l.7-.224h.967a8.574,8.574,0,0,1,1.553-.09c.014.016.029.031.045.045v.068c-.23.289-.565.43-.719.808-.588,1.437,1.075,2.766,1.872,3.152.344.129,1.019.256,1.254.346a1.588,1.588,0,0,1,.561,1.055c-.025.1-.121.143-.155.269l.111.112.068.022c.377-.014.627-.473.789-.717-.166-1.339-1.017-1.159-1.959-1.66a4.08,4.08,0,0,1-1.3-1.188,1.616,1.616,0,0,1,1.687-2.713c.226.047.523.308.787.246l.809-.405V63.5a.6.6,0,0,0-.292-.046c-.384.188-1.063-.053-1.529.046-.921.193-1.965.054-3.015.2-.256-.007-.511-.014-.766-.022-.338.065-.656.2-1.035.27-.893.015-1.786.029-2.677.046a26.522,26.522,0,0,1-7.987.044h-.7c-1.2-.215-2.479-.015-3.622-.223a8.862,8.862,0,0,0-2.251.313,3.636,3.636,0,0,1-1.215-.045l-2.114-.112-.112.112c-.114.641,1.055.431,1.6.516,1.548.242,2.725-.562,4.342-.247.62.12,1.678.052,2.3.179h1.08c.367.075.911,0,1.372.09a21.353,21.353,0,0,0,6.321-.09h.856a5.171,5.171,0,0,0,1.057-.089h1.328" fill="#a97500"/>
      <path id="Path_659" data-name="Path 659" d="M139.887,63.612q-1.113-.076-2.226-.156c-.023.022-.046.046-.067.067v.044c.582.781.928.2,1.6.606q.01,5,.023,10c.045.037.09.075.136.112a.774.774,0,0,0,.538-.045,11.988,11.988,0,0,0,.046-2.623q.021-2.645.045-5.291a9.881,9.881,0,0,0-.09-2.715" fill="#a97500"/>
      <path id="Path_660" data-name="Path 660" d="M91.019,65.048a4.437,4.437,0,0,0,1.485-.067h.878a13.711,13.711,0,0,0,2.16-.09q1.7.023,3.4.045c1.553,0,3.036-.183,4.679-.179.015.03.029.06.045.09a10.1,10.1,0,0,0-1.957,3.453q-.281,1.02-.562,2.041c-.029.239-.06.478-.089.717-.1.276-.525.363-.677.628a.875.875,0,0,0,.586.739l.472-.313c.629-.191,1.825.161,2.092-.381.008-.045.015-.089.023-.136a6.247,6.247,0,0,0-1.62.046l-.315.269c-.231-.038-.326-.267-.428-.426.065-.406.581-.4.675-.808a16.192,16.192,0,0,1,1.6-4.8,7.454,7.454,0,0,1,.788-1.211,16.931,16.931,0,0,1,3.195-.135,1.473,1.473,0,0,0,.787.09.726.726,0,0,0,.135-.538c-.007-.022-.016-.045-.022-.068l-.788-.02c-.373.182-1.032-.053-1.485.044a11.131,11.131,0,0,1-2.248.224h-1.6c-.246.048-.642-.01-.946.046a36.538,36.538,0,0,1-5.018.09c-1.536.041-3.449.184-5.2.179l-.112.135c-.007.075-.015.15-.022.224l.089.112" fill="#a97500"/>
      <path id="Path_661" data-name="Path 661" d="M135.5,66.192a2.465,2.465,0,0,0,1.214.449.906.906,0,0,0,.586-.337v-.089c-.189-.1-.53.016-.811-.09-.326-.167-.1-.519-.2-.919a1.138,1.138,0,0,0-1.17-.763c-.157.1-.3.137-.383.314-.007.022-.013.045-.021.067.256.247.735.389.809.807.03.178-.069.371-.022.56" fill="#a97500"/>
      <path id="Path_662" data-name="Path 662" d="M111.538,71.528a.353.353,0,0,0-.091-.2l-1.033-.044c-.1-.172-.024-.3.021-.493a1.808,1.808,0,0,1,.63-.2,14.705,14.705,0,0,0,.248-4.125q-.191-.359-.383-.717c-.173-.508.024-.813-.652-.853-.029.023-.06.045-.089.068a3.042,3.042,0,0,0-.023,1.189c.112.216.225.433.336.649a15.356,15.356,0,0,1-.134,3.969c-.525.115-.776.237-.855.784.26.454,1.737.281,2.024-.022" fill="#a97500"/>
      <path id="Path_663" data-name="Path 663" d="M157.189,68.838a2.021,2.021,0,0,0-.089-.942,4.447,4.447,0,0,0-1.327-1.1c-.395-.133-.753-.082-.946-.4-.235-.393.455-1.055-.226-1.412l-.134-.022c-.016.007-.028.015-.046.022a4.014,4.014,0,0,0-.293,1.816c.188.384.594.288,1.013.449a5.277,5.277,0,0,1,1.172.942,2.248,2.248,0,0,1,.155.918c-.146.147-.531.229-.607.427v.022a3.379,3.379,0,0,0,1.327-.717" fill="#a97500"/>
      <path id="Path_664" data-name="Path 664" d="M127.333,70.7a.3.3,0,0,0,.224.09,5.6,5.6,0,0,0,.721-3.3c0-.735.21-1.391-.428-1.592-.11-.146-.1-.188-.068-.4v-.022a.331.331,0,0,0-.268-.089c-.335.168-.6.307-.609.785.192.191.538.272.63.561a4.167,4.167,0,0,1-.067,1.143,3.684,3.684,0,0,1,.046.738,6.006,6.006,0,0,0-.181,2.086" fill="#a97500"/>
      <path id="Path_665" data-name="Path 665" d="M108.906,66.708a.507.507,0,0,0,.383-.449,1.482,1.482,0,0,0-.674-.628q-1.531-.057-3.06-.114l-.046.024-.067.09c.084.789,1.789.257,2.5.47.383.115.441.57.966.606" fill="#a97500"/>
      <path id="Path_666" data-name="Path 666" d="M117.119,71.8c.19.191.371.143.7.224a3.733,3.733,0,0,0,2.677-.537c.014-.053.03-.1.045-.158l-1.056.291a3.465,3.465,0,0,1-1.507-.156l-.068-.09c.092-.486.681-.658.879-1.054a11.049,11.049,0,0,0-.09-3.7c-.159-.259-.424-.3-.676-.47-.135-.143-.269-.285-.4-.427a.806.806,0,0,0-.472.023.463.463,0,0,0-.248.29,1.487,1.487,0,0,0,.4.629c.255.154.478.113.63.358a13.719,13.719,0,0,1,.18,3.207c-.145.722-.976.818-.99,1.57" fill="#a97500"/>
      <path id="Path_667" data-name="Path 667" d="M68.228,66.349v.112l.112.066c.2.078.395-.037.541-.066h.786c.541-.12,1.245-.034,1.891-.135a2.348,2.348,0,0,1,1.013-.089c.248.075.68.578,1.057.672a.564.564,0,0,0,.293-.583,1.378,1.378,0,0,0-1.081-.583c-.265.156-.683,0-1.057.089-.6.133-1.554.1-2.16.224-.555.115-1.132-.092-1.395.292" fill="#a97500"/>
      <path id="Path_668" data-name="Path 668" d="M113.541,67.807c.351.4,1.132-.666.923-1.3-.151-.461-.866-.7-1.53-.673-.252.129-.6.088-.651.426.173.1.44.016.7.067.394.078,1,.475.787,1.053-.075.142-.149.284-.226.427" fill="#a97500"/>
      <path id="Path_669" data-name="Path 669" d="M126.77,71.932q-.236-.539-.472-1.076c-.422-.968-.862-1.947-1.26-2.893a7.6,7.6,0,0,0-.7-1.457c-.227-.315-.522-.124-.766-.315-.172-.135-.074-.294-.36-.358a1.994,1.994,0,0,1-.652.09l-.045.088a1.326,1.326,0,0,0,.359.651c.192.144.474.031.677.247.186.375.373.747.562,1.121q.639,1.425,1.281,2.849.294.717.586,1.435c.339.555.745.588,1.17.112-.051-.251-.264-.316-.384-.493" fill="#a97500"/>
      <path id="Path_670" data-name="Path 670" d="M99.052,68.928c.261-.6,1.34-2.3-.045-2.445-.118-.162-.044-.267-.091-.448-.039-.052-.021-.038-.09-.067l-.314.113a1.617,1.617,0,0,0-.18.829c.288.183.515.25.607.628.155.646-1.254,1.782-.338,2.22.252-.147.33-.552.451-.829" fill="#a97500"/>
      <path id="Path_671" data-name="Path 671" d="M91.83,66.057a2.381,2.381,0,0,0-.63,1.369c.008.015.015.029.022.044.183.116.316.006.586.067a1.894,1.894,0,0,1,.855.672L94.1,71.484c.273.631.428,1.359,1.012,1.682.927-.063.023-1.467-.158-1.884l-1.574-3.566a1.843,1.843,0,0,0-1.283-.695c-.116-.271.163-.5.18-.829a1.1,1.1,0,0,0-.449-.135" fill="#a97500"/>
      <path id="Path_672" data-name="Path 672" d="M95.9,70c.719-.014.8-1.271.944-1.883.036-.151.158-.338.112-.539a1.177,1.177,0,0,0-.631-.627c-.17-.234-.053-.369-.044-.763-.082-.083-.09-.112-.27-.112-.137.093-.327.137-.45.224-.056.224.07.4.045.583l-.157.223c-.063.212.591.595.7.809.153.478-.4,1.384-.4,1.973L95.9,70" fill="#a97500"/>
      <path id="Path_673" data-name="Path 673" d="M104.789,68.367a.414.414,0,0,0,.518-.247c.158-.387-.535-1.719-.742-1.817-.074-.008-.151-.015-.226-.021l-.157.133c-.139.261-.046.389-.067.584a6.041,6.041,0,0,0,.674,1.368" fill="#a97500"/>
      <path id="Path_674" data-name="Path 674" d="M120.179,67c-.116.075-.21.113-.27.247-.009.044-.017.089-.023.134.5.64,1.079,1.223.383,2.243v.089c.029.023.06.045.088.067,1.21-.072,1.321-2.81-.179-2.78" fill="#a97500"/>
      <path id="Path_675" data-name="Path 675" d="M68.925,67.649l.383-.4c-.008-.023-.015-.046-.023-.068h-.135a2.813,2.813,0,0,0-.9.651,5.5,5.5,0,0,0-.429,3.362,3.214,3.214,0,0,0,.608.964h.09c.566-.856-.268-1.663,0-2.936a4.893,4.893,0,0,1,.4-1.57" fill="#a97500"/>
      <path id="Path_676" data-name="Path 676" d="M159.145,67.537c-.851.174-.526.183-.739.337v.067c.127.049.191-.033.358,0a1.175,1.175,0,0,1,.833.9c.05.243-.067.372-.091.561.017.015.03.029.046.045,1.232-.111.446-2.08-.407-1.906" fill="#a97500"/>
      <path id="Path_677" data-name="Path 677" d="M71.333,67.581c-.184.1-.385.035-.652.09a2.258,2.258,0,0,0-.765.359V68.1l.022.023c.594-.035,1.1-.2,1.463.134.129.119.331.81.472.785,1.006-.174.4-1.476-.54-1.458" fill="#a97500"/>
      <path id="Path_678" data-name="Path 678" d="M134.06,70.9a3.719,3.719,0,0,0,3.647-.039c0-.022.258-.237.151-.3a15.678,15.678,0,0,1-1.683.384c-.735.019-1.026-.364-1.529-.538-.414.058-.792.6-1.26.381-.04-.313.27-.488.337-.785.11-.5-.2-.686-.27-.965-.115-.429.434-.381.113-.83l-.2-.044a1.472,1.472,0,0,0-.609,1.066,4.064,4.064,0,0,0,.2.728c.115.462-.281.765-.4,1.054.016.174.077.192.156.292.586.139.888-.311,1.35-.4" fill="#a97500"/>
      <path id="Path_679" data-name="Path 679" d="M114.554,72.021c.249.264.9.342,1.08-.044.007-.038.014-.074.022-.112-.229-.292-.492-.416-.653-.808-.476-1.16-.194-2.153-1.89-2.152a1.134,1.134,0,0,0-.562.358c.015.03.029.06.045.09,2.027.393.981,1.634,1.958,2.667" fill="#a97500"/>
      <path id="Path_680" data-name="Path 680" d="M104.676,71.663c.376.38,2.8.163,3.128-.179a.347.347,0,0,0-.091-.2c-.644-.084-1.435.264-2.093.089l-.157-.112c.039-.6.295-.616.563-.941a1.487,1.487,0,0,0-.427-1.054c-.075-.009-.15-.015-.225-.022a11.882,11.882,0,0,1-1.575.224c-.03.053-.061.1-.089.157v.112c.043.037.089.075.135.112l1.033-.112a1.317,1.317,0,0,1,.338.829,1.252,1.252,0,0,0-.54,1.1" fill="#a97500"/>
      <path id="Path_681" data-name="Path 681" d="M159.6,70.43c.013-.022.029-.046.045-.067-.183-.165-.444.111-.764.045-.571-.119-1.073-.692-1.418-.741l-.474.382v.135a1.878,1.878,0,0,0,1.869.606c.246-.12.495-.239.742-.359" fill="#a97500"/>
      <path id="Path_682" data-name="Path 682" d="M74.144,70.7v-.112A2.346,2.346,0,0,0,72.435,70c-.726.4-2.724.468-3.126,1.076.029.031.06.06.09.09a14.116,14.116,0,0,1,2.835-.762l1.484.627c.258-.009.345-.156.426-.336" fill="#a97500"/>
      <path id="Path_683" data-name="Path 683" d="M156.426,70.43v-.022a3.125,3.125,0,0,0-.992.223,1.834,1.834,0,0,1-1.619-.561h-.158c-.174.119-.4.116-.5.314-.008.06-.013.12-.022.179.925.973,2.36.295,3.262-.068.008-.022.016-.044.025-.066" fill="#a97500"/>
      <path id="Path_684" data-name="Path 684" d="M98.129,72.964a.492.492,0,0,0,.449-.584c-.3-.339-1.164-1.629-1.573-1.7a1.576,1.576,0,0,0-.361.65,4.989,4.989,0,0,0,1.485,1.638" fill="#a97500"/>
      <path id="Path_685" data-name="Path 685" d="M71.4,74.265a1.288,1.288,0,0,0,.921-.359c-.007-.038-.015-.075-.022-.113-.7-.116-1.593-.6-1.283-1.547l.36-.584c-.023-.03-.045-.059-.067-.09h-.136a1.8,1.8,0,0,0-.943,1.121c-.168.689.7,1.477,1.17,1.571" fill="#a97500"/>
      <path id="Path_686" data-name="Path 686" d="M152.262,74c-.207.746-.457,1.628-.721,2.31.021.3.619.663.9.583a.492.492,0,0,0,.271-.494q-.2-.168-.4-.337c.027-.2.13-.268.177-.426q.442-1.816.88-3.632c-.13-.1-.166-.179-.407-.179a6.388,6.388,0,0,0-.7,2.175" fill="#a97500"/>
      <path id="Path_687" data-name="Path 687" d="M72.908,72.783a.754.754,0,0,0-.608-.94c-.191.119-.4.14-.517.336.008.022.015.044.023.067l.428.268a2.107,2.107,0,0,1,0,.629c.172.069.566-.209.675-.36" fill="#a97500"/>
      <path id="Path_688" data-name="Path 688" d="M73.111,73.928v-.091c-.03-.006-.061-.014-.09-.021-.531.284-1.249.671-1.35,1.345a4.264,4.264,0,0,1-.016.7,1.805,1.805,0,0,0-.049.949c.053.106.055.312.108.417q.035.561.068,1.121c.2.295.675-.212.7-.4a3.675,3.675,0,0,0-.224-1.392,1.375,1.375,0,0,1,0-.531c-.016-.2.017-.439,0-.634a2.57,2.57,0,0,1,.855-1.458" fill="#a97500"/>
      <path id="Path_689" data-name="Path 689" d="M74.64,74.555c-.322.119-.6-.011-.765.247l-.045.09v.023c.163.086.511.044.652.156a.939.939,0,0,1,.224.448c.27.891-.443.786-.607,1.257v.313l-.292.315c-.178.371-.077,1.084.226,1.232.324.129.731-.161.9-.291V78.3c-.112-.123-.314-.1-.383-.269-.527-1.277.642-1.616.9-2.242a.882.882,0,0,0-.81-1.235" fill="#a97500"/>
      <path id="Path_690" data-name="Path 690" d="M91.019,76.17a10.061,10.061,0,0,0,3.015-.113H95.34a12.419,12.419,0,0,0,2.474-.179,9.526,9.526,0,0,1,2.07.089,1.7,1.7,0,0,0,.45-.089h1.417a21.784,21.784,0,0,0,3.645-.135h5.985a31.412,31.412,0,0,1,5.984-.179,22.638,22.638,0,0,1,3.916.089c.561.114,1.3,0,1.753.09h1.059a16.281,16.281,0,0,0,3.037-.179h.967c.524,0,1.173-.036,1.688,0a4.64,4.64,0,0,0,1.012-.046h1.532l1.89-.111c-.068.242-.484.4-.63.6a2.575,2.575,0,0,0-.09,2.557,3.022,3.022,0,0,0,1.576,1.029c.143-.005.284-.013.427-.021,1.085.348,1.845.567,1.327,1.973v.023c.976.227,1.207-1.358.675-1.929-.375-.4-1.123-.387-1.754-.538a2.424,2.424,0,0,1-1.688-1.323,2.625,2.625,0,0,1,.586-2.421,4.25,4.25,0,0,1,2.047-.067l.787-.18c.157.031.314.061.473.09a6.845,6.845,0,0,0,1.17-.09,9.878,9.878,0,0,1,.09,2.692c0,2.292-.088,4.529-.09,6.907.045.037.09.074.135.112l.451.022c.037-.03.074-.061.111-.089q.013-1.928.023-3.857a8.174,8.174,0,0,1,.09-1.435V74.713c-.046-.037-.09-.075-.136-.112-.081-.007-.165-.015-.247-.023-.528.259-1.548.05-2.227.158-1.246.2-2.7.053-3.894.292-.79.159-1.755-.065-2.5.044l-1.913-.044c-.417.087-1.1-.011-1.62.088a12.061,12.061,0,0,1-2.138.09l-4.568-.09h-3.914a12.222,12.222,0,0,0-3.735.045c-.6.107-1.221-.005-1.755.09h-1.957a32.613,32.613,0,0,0-5.242.179q-1.812.009-3.623.023-1.08-.012-2.159-.023a7.568,7.568,0,0,0-1.373.134H95.722a15.21,15.21,0,0,0-2.454.135h-2.2l-.112.113c-.007.081-.015.163-.022.245l.089.113" fill="#a97500"/>
      <path id="Path_691" data-name="Path 691" d="M155.593,77.224a.484.484,0,0,0,.314-.426c-.517-.674-.148-.828-.089-1.637-.045-.037-.092-.074-.137-.112-.3-.117-.507,0-.959,0a1.525,1.525,0,0,0-.637-.2c-.149.117-.3.2-.384.381-.008.052-.013.1-.022.157.578.6.981-.146,1.373.223-.1.674-.394.935.044,1.5l.5.113" fill="#a97500"/>
      <path id="Path_692" data-name="Path 692" d="M70.162,75.206a.728.728,0,0,0-.269.313c.015.207.195.222.382.158.147-.061.2-.16.293-.269-.007-.045-.015-.089-.022-.135a.657.657,0,0,0-.383-.068" fill="#a97500"/>
      <path id="Path_693" data-name="Path 693" d="M157.594,77.987a1.808,1.808,0,0,0,.968.133.633.633,0,0,0,.181-.268c-.061-.142-.1-.187-.316-.179-.234-.365.164-1.132-.02-1.616-.143-.3-.876-.509-1.328-.493a.935.935,0,0,0-.249.292v.134c.256.183.624.292.877.471a4.88,4.88,0,0,0-.112,1.525" fill="#a97500"/>
      <path id="Path_694" data-name="Path 694" d="M70.232,79.78a2.806,2.806,0,0,0,2.293-.538c-.136-.084-.369.057-.539.089a2,2,0,0,1-1.619-.269,2.47,2.47,0,0,1-.541-1.189v-.785c-.054-.2-.3-.232-.4-.38-.2-.287-.289-.684-.563-.9h-.067c-.115.264.106.735.2.986.22.571.821,2.773,1.239,2.982" fill="#a97500"/>
      <path id="Path_695" data-name="Path 695" d="M136.873,77.337c-.419-.647-.434-1.336-1.531-1.324-.187.1-.358.143-.449.337-.007.015-.016.029-.023.045.123.139.389.137.54.246.387.284.549.848.833,1.233a1.53,1.53,0,0,1,.742.246.471.471,0,0,0,.5-.336c-.135-.211-.466-.228-.608-.447" fill="#a97500"/>
      <path id="Path_696" data-name="Path 696" d="M117.074,76.17l-.136-.022-.337.089c-.38.246-.264,1.252-.113,1.637.392.268.76-.03,1.013-.224v-.09c-.535-.3-.377-.672-.315-1.323l-.112-.067" fill="#a97500"/>
      <path id="Path_697" data-name="Path 697" d="M130.6,77.067c-.117-.273-.5-.35-.653-.582-.078-.116-.051-.208-.157-.292h-.068a2.374,2.374,0,0,0-.585.381c-.083.55.612.565.72,1.01a2.6,2.6,0,0,1-.006,1.071c0,.246-.084.633-.084.879a3.261,3.261,0,0,0,.023,2.018h.136c.254-.148.452-.908.517-1.233-.014-.18.027-.453.011-.634a8.156,8.156,0,0,0,.147-2.618" fill="#a97500"/>
      <path id="Path_698" data-name="Path 698" d="M98.647,80.632c-.389-.28-1.276-.069-1.688-.357-.075-.127-.249-.183-.326-.311-1.485-.407-2.089-1.609-1-3.165-.056-.081-.044-.082-.18-.089-.29.171-.623.27-.789.561a2.3,2.3,0,0,0,.429,2.825c.235.171.613.119.877.292.16.1.218.249.428.328.19.072.282,0,.472.052.4.12,1.05.18,1.306.562.386.577-.2,1.037-.316,1.412l.023.023v.045c1-.039,1.63-1.551.764-2.177" fill="#a97500"/>
      <path id="Path_699" data-name="Path 699" d="M103.574,83.1c-.21.225-.537.357-.563.762.008.015.016.031.023.046a15.992,15.992,0,0,0,3.734.045c.464-.079.684.23,1.1.247a.572.572,0,0,0,.27-.517c-.9-.621-3.169.2-4.275-.179-.007-.044-.016-.09-.021-.134.246-.378.661-.61.831-1.055a4.478,4.478,0,0,0-.021-2.13v-.942a10.7,10.7,0,0,0-.2-1.435c-.181-.546-.83-.411-.945-.74-.021-.08.026-.144.067-.224-.014-.029-.03-.059-.045-.089l-.113-.022c-.252.128-.919.367-.651.829.142.274.636.177.81.427.223.32.139.891.225,1.345.067.35-.008.833.09,1.256a3.9,3.9,0,0,1,.134,1.546,2.117,2.117,0,0,1-.449.965" fill="#a97500"/>
      <path id="Path_700" data-name="Path 700" d="M128.817,81.6,127.2,78.48c-.151-.262-.156-.546-.315-.83-.183-.331-.671-.2-.989-.4-.053-.1-.1-.209-.159-.314-.071-.124-.223-.126-.427-.112-.157.093-.308.088-.405.246.106,1.034.849.465,1.192,1.009.1.246.195.494.294.74q.853,1.613,1.709,3.229c.257.5.483,1.32,1.013,1.547a.786.786,0,0,0,.608-.359c-.044-.242-.249-.4-.36-.583q-.271-.525-.54-1.054" fill="#a97500"/>
      <path id="Path_701" data-name="Path 701" d="M120.11,77.179c-.175-.361-.886-.332-1.439-.314-.282.159-.543.262-.788.426v.09c.323.117,1.162-.19,1.419.179.163.191.076.932.066,1.257-.015.544-.09,1.105-.09,1.726v1.345c-.068.15-.135.3-.2.448v.022c1.38.552.917-2.756,1.014-3.834a3.692,3.692,0,0,0,.021-1.345" fill="#a97500"/>
      <path id="Path_702" data-name="Path 702" d="M122.337,77.674c.327.081.5.6.9.514a.566.566,0,0,0,.318-.56,1.088,1.088,0,0,0-1.081-.449c-.425.08-.732.024-.877.314-.009.022-.016.046-.023.067v.023c.193.13.471.015.763.09" fill="#a97500"/>
      <path id="Path_703" data-name="Path 703" d="M98.31,79.018l.179-.156c-.007-.037-.013-.076-.022-.112-.1-.152-.324-.193-.427-.358-.394-.64-.317-1.136-1.4-1.121-.182.113-.3.16-.406.358.009.022.016.046.023.068.153.088.392.087.519.2.722.66-.006,1.05,1.53,1.12" fill="#a97500"/>
      <path id="Path_704" data-name="Path 704" d="M110.549,77.493l-.113-.089h-.067c-.234.123-.451.158-.563.4-.291.638,1.165,1.751,1.53,2.018-.056.816-1.373,1.531-1.394,2.488.4.469.921.314,1.35-.022V82.2c-.254-.111-.444-.065-.563-.315.252-.717,1.4-1.816,1.417-2.4-.5-.515-1.6-1.044-1.6-2" fill="#a97500"/>
      <path id="Path_705" data-name="Path 705" d="M113.969,77.515v-.022l-.2-.022a2.561,2.561,0,0,0-1.1,1.01c.007.023.016.044.022.067.375.174,1.233-.756,1.283-1.032" fill="#a97500"/>
      <path id="Path_706" data-name="Path 706" d="M76.621,77.964l.157-.18c-.008-.045-.014-.088-.023-.134a3.58,3.58,0,0,0-1.033-.135,1.117,1.117,0,0,0-.248.449l.112.088c.258.1.732-.058,1.035-.088" fill="#a97500"/>
      <path id="Path_707" data-name="Path 707" d="M153.162,77.83h-.135c-.213.131-.47.2-.585.426a1.437,1.437,0,0,0,1.822,1.95.975.975,0,0,0,.429-.246l-.068-.067c-.329-.077-1.229.03-1.507-.2-.424-.354.011-1.339.089-1.793-.013-.023-.029-.046-.045-.068" fill="#a97500"/>
      <path id="Path_708" data-name="Path 708" d="M76.97,78.434c.007-.074.048-.238.055-.314-.082-.083-.089-.112-.27-.112-.149.076-.3.15-.45.225-.126.186-.04.379-.224.507-.749.356-2.609,1.432-3.223,1.745-.009.023-.015.044-.023.067v.023a19.324,19.324,0,0,0,4.135-2.141" fill="#a97500"/>
      <path id="Path_709" data-name="Path 709" d="M154.152,78.032l-.383.179c-.052.076-.077.072-.09.2.413.272.669.377.654,1.1a.269.269,0,0,0,.335.045c.062-.06.12-.119.181-.179a1.091,1.091,0,0,0-.7-1.345" fill="#a97500"/>
      <path id="Path_710" data-name="Path 710" d="M151.655,83.7v-.023c-.519-.11-1.09.446-1.732.315a1.966,1.966,0,0,1-1.464-2.511,2.191,2.191,0,0,1,.474-.808c.364-.369,1.521-.713.967-1.479-.1-.015-.195-.03-.291-.046-.48.321-.128.651-.406,1.055l-.45.337a2.92,2.92,0,0,0-1.08,1.928,1.852,1.852,0,0,0,.247.964c.794,1.615,2.445.836,3.712.337.009-.022.014-.045.023-.067" fill="#a97500"/>
      <path id="Path_711" data-name="Path 711" d="M134.577,82.292l.652.358a2.746,2.746,0,0,0,2.628-.518c.238-.236-.042-.163-.042-.193-.218.008-.517.429-1.258.442-.551.051-1.207-.681-1.62-.583-.374.089-.548.418-.989.493l-.046-.022c-.021-.03-.044-.059-.067-.091.1-.655.795-.667.539-1.591-.075-.277-.073-.415-.269-.561L133.723,80c-.128.07-.211.087-.294.2.085.382.166.763.248,1.144-.106.52-.652.726-.7,1.233.78.585.92-.454,1.6-.292" fill="#a97500"/>
      <path id="Path_712" data-name="Path 712" d="M74.438,81.821q1.114-.483,2.227-.964a1.391,1.391,0,0,1,.721.135.9.9,0,0,0,.855-.292c-.008-.037-.015-.074-.023-.112s-.014-.045-.022-.067a1.935,1.935,0,0,0-.935-.2q-1.82.809-3.643,1.615c-.031.051.019.15-.012.2a2.508,2.508,0,0,0,.833-.313" fill="#a97500"/>
      <path id="Path_713" data-name="Path 713" d="M114.6,82.673c.172.045.24-.077.316-.135a.975.975,0,0,0,0-.606,6.077,6.077,0,0,0-1.935-1.278c-.208.109-.36.178-.405.447a17.8,17.8,0,0,0,2.024,1.571" fill="#a97500"/>
      <path id="Path_714" data-name="Path 714" d="M72.188,83.547c.053.03.106.061.158.089,1.083-.405.063-1.592-.2-2.041-.128-.215-.153-.546-.292-.762l-.113-.022-.383.068c-.267.137-.241.557-.112.807.294.57.953,1.132.945,1.861" fill="#a97500"/>
      <path id="Path_715" data-name="Path 715" d="M151.318,81.441v-.09a1.645,1.645,0,0,0-.9-.448c-.154.107-.262.225-.4.336V81.4a1.015,1.015,0,0,0,1.306.045" fill="#a97500"/>
      <path id="Path_716" data-name="Path 716" d="M94.26,83.816c.451.482,1.123-.136,1.71,0l.608.247a2.429,2.429,0,0,0,2.115-.382v-.067c-.3-.125-.564.155-.946.067s-.833-.3-1.148-.379c-.4-.108-.948.272-1.484.179-.264-.473.537-.926.63-1.325.082-.349-.168-.61-.157-.963l-.2-.045c-.226.148-.511.175-.584.471-.089.355.259.559.112.919-.184.448-.652.619-.652,1.278" fill="#a97500"/>
      <path id="Path_717" data-name="Path 717" d="M75.807,85.261a10.41,10.41,0,0,0,2.34-1.324c.271-.164.747-.307.923-.56.215-.312-.567-1.945-.807-2.072l-.157-.023-.45.046c-.038.037-.075.074-.112.112-.076.307.725,1.422.741,2.018a9.182,9.182,0,0,1-1.934,1.256,2.673,2.673,0,0,0-.675.4c.007.022.124.121.131.145" fill="#a97500"/>
      <path id="Path_718" data-name="Path 718" d="M151.747,81.731c-.033-.084,0-.046-.069-.09a9.017,9.017,0,0,0-1.283.9v.022l.066.045c.321.081,1.048-.694,1.286-.875" fill="#a97500"/>
      <path id="Path_719" data-name="Path 719" d="M154.874,82.875c-.1-.4-.973-.651-1.465-.651a2.039,2.039,0,0,0-.315.315c.01.052.016.1.023.157.639.349.889.045.99.942.39.19.883-.294.767-.762" fill="#a97500"/>
      <path id="Path_720" data-name="Path 720" d="M119.054,83.5c1.031-.086,2.288.1,2.97-.426V83.01c-.816-.353-3.028.482-3.105-.449l-.133-.067c-.163.1-.413.075-.542.2-.443.44.282.852.811.807" fill="#a97500"/>
      <path id="Path_721" data-name="Path 721" d="M151.88,85.454c.3.117.7-.032.922.135.333.248.309.745.719.942a.559.559,0,0,0,.519-.382,1.617,1.617,0,0,0-.631-1.054l-.584-.022a2.932,2.932,0,0,1-.585-.27c-.234-.313.031-.419.068-.806l-.137-.113c-.045-.008-.091-.014-.135-.022-.6.373-1.034,1.256-.157,1.593" fill="#a97500"/>
      <path id="Path_722" data-name="Path 722" d="M78.892,85.23a2.4,2.4,0,0,0,1.351.022.294.294,0,0,0,.09-.224,1.594,1.594,0,0,0-.968-.179,1.792,1.792,0,0,0-.5.313c.007.023.015.046.022.069" fill="#a97500"/>
      <path id="Path_723" data-name="Path 723" d="M148.01,84.984l-.112-.046a3.213,3.213,0,0,0-1.351,1.143c-.018.061,0,.071.023.135l.316.045a16.4,16.4,0,0,1,1.125-1.211v-.066" fill="#a97500"/>
      <path id="Path_724" data-name="Path 724" d="M75.361,88.168l.112-.023c.28-.137.252-.583.157-.874l-1.1-1.907c-.217-.03-.435-.058-.652-.09-.021.038-.045.077-.067.113a1.8,1.8,0,0,0,.2.808,6.712,6.712,0,0,0,1.35,1.974" fill="#a97500"/>
      <path id="Path_725" data-name="Path 725" d="M77.858,92.786c.335.251,1.151.068,1.687.046a9.4,9.4,0,0,0,2.813-.785l.923-.472c.013-.044.029-.089.045-.133a.276.276,0,0,0-.023-.022l-1.169.492c-.677.212-1.277.242-2.048.426a2.983,2.983,0,0,1-1.417.09c-.476-.24-.252-.957-.066-1.324.653-1.3,1.269-2.7,1.933-4.013.22-.435.736-1.444-.224-1.437l-.089.045c-.135.229,0,.673-.113.963q-.528,1.112-1.057,2.221a24.188,24.188,0,0,1-1.125,2.355c-.185.318-.5,1.223-.068,1.547" fill="#a97500"/>
      <path id="Path_726" data-name="Path 726" d="M151,90.813l.046-.023c.281-.488-.495-.637-.586-1.009-.116-.482.228-1.094.317-1.48a1.811,1.811,0,0,0-1.711-2.153c-.195.129-.48.205-.607.4.009.022.016.044.024.067l.539.044a2.1,2.1,0,0,1,1.036,1.37c.246,1.147-1.407,2.792.944,2.78" fill="#a97500"/>
      <path id="Path_727" data-name="Path 727" d="M145.376,86.328c-.131.087-.241.159-.36.247-.106.4.039.514.271.695.149.116.289.3.495.358A2.809,2.809,0,0,0,147.741,87a.579.579,0,0,1-.023-.068c-.255.082-.511.164-.765.247-.806.174-1.041-.518-1.439-.829l-.137-.024" fill="#a97500"/>
      <path id="Path_728" data-name="Path 728" d="M82.357,87.809v-.09a.743.743,0,0,0-.427-.179,1.569,1.569,0,0,0-.383.358v.068l.089.112a.634.634,0,0,0,.721-.269" fill="#a97500"/>
      <path id="Path_729" data-name="Path 729" d="M83.595,89.131q.022-.214.046-.426c-.046-.037-.091-.074-.136-.112l-.134-.022c-.266.168-.546.347-.45.807.259.117.516-.119.675-.247" fill="#a97500"/>
      <path id="Path_730" data-name="Path 730" d="M147.605,93.751v-.069c-.162-.062-.241.034-.428.046a2.563,2.563,0,0,1-1.237-.2c-1.328-.583-3.377-3.276-1.576-4.777V88.66c-.029-.015-.06-.028-.089-.045-3.373,1.605.466,7.132,3.33,5.136" fill="#a97500"/>
      <path id="Path_731" data-name="Path 731" d="M124.044,98.375c1.176-.381,2.307-.742,3.388-1.152A40.088,40.088,0,0,0,137.84,91.4c.73-.564,1.382-1.2,2.093-1.771.181-.145.427-.285.516-.517v-.022a3.161,3.161,0,0,0-1.147-.066H88.86l-.068.066c.142.531,2.1.337,2.835.337h47.518c.023.03.045.061.068.089v.024A35.566,35.566,0,0,1,128.6,96.472c-1.383.641-2.855,1.072-4.319,1.648-.31.123-1.378.3-1.516.515a.176.176,0,0,1,0,.022c.284.108.976-.186,1.276-.282" fill="#a97500"/>
      <path id="Path_732" data-name="Path 732" d="M147.741,90.992c-.2-.513-.876-.672-1.24-1.031a3.193,3.193,0,0,0-.561-.583l-.495-.113c-.217.145-.392.12-.519.36.1.121.3.13.427.225.19.187.376.373.563.56.665.576,1.349.8,1.283,2.063l.046.046c.792-.049.734-.895.495-1.526" fill="#a97500"/>
      <path id="Path_733" data-name="Path 733" d="M115.318,97.293l.158.2a5.1,5.1,0,0,0,3.562-.935s.133-.126.093-.192a.143.143,0,0,0-.215.014,3.486,3.486,0,0,1-1.887.665h-.855c-.03-.031-.06-.061-.09-.09.087-.344.627-.461.9-.627a2.985,2.985,0,0,0,1.17-1.235c.467-1.137-.512-2.146-1.079-2.711q-.238-.214-.472-.427c-.228-.515.191-1.131.043-1.7-.036-.046-.073-.091-.112-.136l-.2-.022c-.12.076-.239.149-.36.224-.086.459.032.954-.067,1.458a2.075,2.075,0,0,0-.09.516c.779.809,2.451,2.074,1.3,3.543-.331.422-1.722,1.1-1.8,1.457" fill="#a97500"/>
      <path id="Path_734" data-name="Path 734" d="M109.042,97.092c-.189.12-.391.11-.5.313-.007.022-.016.046-.022.069.038.043.075.088.112.133a5.371,5.371,0,0,0,3.581-.932s.113-.081.037-.17a.148.148,0,0,0-.19,0,3.554,3.554,0,0,1-2.707.65c-.046-.128.657-.487.765-.56a3.3,3.3,0,0,0,1.508-1.928c.167-.8-.886-1.838-1.283-2.152-.153-.124-.4-.223-.495-.4-.151-.387.144-1.287.158-1.705l-.091-.113-.494-.022a5.66,5.66,0,0,0-.359,2.2c.835.905,2.744,1.962,1.26,3.589a6.633,6.633,0,0,1-1.282,1.03" fill="#a97500"/>
      <path id="Path_735" data-name="Path 735" d="M84.945,90.409c-.2.128-.436.2-.562.4.316.311.873.014,1.1-.09.03-.051.06-.1.09-.157-.106-.176-.335-.172-.63-.156" fill="#a97500"/>
      <path id="Path_736" data-name="Path 736" d="M123.305,90.723v-.067l-.134-.045a3.373,3.373,0,0,0-1.012,5.313,2.527,2.527,0,0,0,3.983.051c-.151-.493-.43.622-1.824.443a2.293,2.293,0,0,1-1.012-.494,3.318,3.318,0,0,1,0-5.2" fill="#a97500"/>
      <path id="Path_737" data-name="Path 737" d="M103.754,96.89c-.007.051-.016.1-.022.157a7.205,7.205,0,0,0,3.555-.022c.03-.031.062-.061.09-.09-.045-.059-.09-.119-.134-.179l-2.633-.046c-.023-.006-.045-.015-.067-.022-.008-.044-.016-.089-.023-.133.257-.331.73-.409.878-.854q.012-.917.022-1.837c0-1.614.31-3.256-1.372-3.229-.045.052-.091.1-.135.156V91.1c.161.311.578.342.72.717.008.4.014.793.023,1.189a14.253,14.253,0,0,1-.023,3.051c-.147.386-.7.454-.878.828" fill="#a97500"/>
      <path id="Path_738" data-name="Path 738" d="M112.979,90.925a.525.525,0,0,0-.338-.067c-.42.218-1.5-.135-1.553.448.046.037.091.076.136.113.155.059.268-.043.383-.069.522-.114,1.267.071,1.372-.425" fill="#a97500"/>
      <path id="Path_739" data-name="Path 739" d="M119.817,90.88l-.359-.022c-.348.2-1.244-.077-1.553.179a.269.269,0,0,0-.157.246l.134.136a3.5,3.5,0,0,0,1.959-.428c-.009-.037-.016-.073-.025-.112" fill="#a97500"/>
      <path id="Path_740" data-name="Path 740" d="M80.9,89.378a2.717,2.717,0,0,0-.383.269c.035.376.364.443.519.695a.632.632,0,0,1,.064.3,8.573,8.573,0,0,0-1.1.782l-.046.066v.023c.03.022.06.045.091.066a6.32,6.32,0,0,0,1.517-.888c.354-.212.359-.466-.034-.906-.182-.2-.224-.409-.629-.4" fill="#a97500"/>
      <path id="Path_741" data-name="Path 741" d="M86.16,91.553l-.112-.022c-.383.227-.892.516-1.012.987-.1.393.257.624.383.83a6.277,6.277,0,0,1,.786,1.815c.1.411-.268.724-.337,1.031l.068.091a1.024,1.024,0,0,0,.675-.448c.632-.894.005-2.138-.406-2.8-.134-.2-.27-.4-.4-.606-.094-.366.241-.6.383-.763l-.023-.112" fill="#a97500"/>
      <path id="Path_742" data-name="Path 742" d="M124.7,95.5l.112.044a1.92,1.92,0,0,0,.721-.515,8.132,8.132,0,0,0,.112-2.737c-.205-.578-.638-.735-1.465-.718-.129.081-.246.1-.314.246-.019.061,0,.071.023.135.45.076.725.139.922.449a5.438,5.438,0,0,1-.112,3.073V95.5" fill="#a97500"/>
      <path id="Path_743" data-name="Path 743" d="M139.308,93.574c.683-.486,1.365-1.1,2.047-1.58.008-.022.015-.046.024-.067-.037-.022-.076-.045-.112-.069-.858.621-1.738,1.3-2.589,1.895a4.631,4.631,0,0,0-.922.673.842.842,0,0,0,.359.649c.421.18.7-.142.878-.291v-.067c-.234-.157-.434-.206-.45-.582a2.692,2.692,0,0,1,.765-.561" fill="#a97500"/>
      <path id="Path_744" data-name="Path 744" d="M142.5,98.125c.037.046.074.091.112.135a1.368,1.368,0,0,0,.969-.338v-.111c-.177-.027-.3-.018-.362-.158-.1-.3.212-.581.091-.919-.132-.364-.467-.5-.673-.784a13.37,13.37,0,0,0-1.8-2.2l-.158-.022c-.248.165-.582.229-.811.379v.09c.723.146,1.566,1.52,2,2.11.19.255.555.427.673.738.139.364-.14.688-.044,1.077" fill="#a97500"/>
      <path id="Path_745" data-name="Path 745" d="M88.274,101.15c.11-.051.137-.109.181-.224-.286-.776-1.35-.992-1.8-1.659.009-.053.017-.105.023-.158l.541-.224c.732-.485,1.56-2.23,2.093-3.027.184-.277.817-.915.494-1.482a.454.454,0,0,0-.427-.246c-.554.47-.1.887-.338,1.3-.559.951-1.217,1.877-1.822,2.781-.2.282-.39.567-.585.852l-.7.291a.637.637,0,0,0,.112.56c.186.27,1.765,1.365,2.227,1.233" fill="#a97500"/>
      <path id="Path_746" data-name="Path 746" d="M136.76,98.684a2.5,2.5,0,0,1-.675-1.232c-.061-.034-.1-.1-.225-.068-.2.09-.406.179-.607.269a10.151,10.151,0,0,1-1.328.089l-.18-.157c-.069-.42.443-.6.7-.785l2.182-1.592a.167.167,0,0,0-.113-.089c-.881.556-1.691,1.145-2.519,1.727-.3.207-.818.443-.967.784a.514.514,0,0,0,.088.493,3.835,3.835,0,0,0,1.734-.067c.175-.059.245-.168.494-.179a3.867,3.867,0,0,1,.159.515l.473.628a.946.946,0,0,1-.631.694c-.179.311.262.81.339,1.168a.314.314,0,0,0,.248.089c.163-.143.4-.235.516-.426-.141-.33-.264-.671-.4-.964.2-.3.683-.426.72-.9" fill="#a97500"/>
      <path id="Path_747" data-name="Path 747" d="M91.649,96.576c.135-.065.152-.17.226-.292v-.091a1.18,1.18,0,0,0-.631-.269c-.036.024-.074.046-.111.068a1.382,1.382,0,0,0,.021.562,1.012,1.012,0,0,0,.5.022" fill="#a97500"/>
      <path id="Path_748" data-name="Path 748" d="M90.683,101.509c.007.022.015.045.021.067.289.129.938-.512,1.126-.694a10.685,10.685,0,0,0,1.349-2.467l.428-.807c.151-.566-.726-1.185-1.148-1.233l-.112.135c-.137.5.6.857.517,1.345L91.2,101.06c-.138.183-.387.252-.517.449" fill="#a97500"/>
      <path id="Path_749" data-name="Path 749" d="M95.047,98.594v.021c.007.016.015.03.022.046a.623.623,0,0,0,.473,0,.373.373,0,0,0,.224-.315l-.045-.089-.135-.021a3.375,3.375,0,0,0-.54.358" fill="#a97500"/>
      <path id="Path_750" data-name="Path 750" d="M97.117,106.308a1.035,1.035,0,0,0,.9-.292v-.067c-.739-.508-.223-.491-.427-1.369-.315-1.344-.1-3.089-.405-4.417-.21-.912.2-1.463-.99-1.458l-.112.068c-.059.358.176.431.246.695.082.3.12.69.181.965v.694c.213,1.031.087,2.392.314,3.408.168.747-.182,1.309.294,1.772" fill="#a97500"/>
      <path id="Path_751" data-name="Path 751" d="M132.89,99.267c-.046-.047-.057-.043-.156-.046-.273.186-.56.27-.7.583a1.32,1.32,0,0,0,2.025,1.638v-.068c-.023-.016-.046-.03-.067-.045l-.541-.022c-.762-.159-.971-.56-.764-1.524.039-.179.237-.348.2-.515" fill="#a97500"/>
      <path id="Path_752" data-name="Path 752" d="M134.466,100.545a1.374,1.374,0,0,0-.361-1.121l-.27-.046c-.19.1-.372.124-.495.291v.091c.436.282.458.434.517,1.053.235.1.474-.119.608-.269" fill="#a97500"/>
      <path id="Path_753" data-name="Path 753" d="M100.154,101.216c.022.031.045.061.068.091a1.521,1.521,0,0,0,.833-.628c-.054-.239-.106-.479-.159-.717a.713.713,0,0,0-.449-.135c-.35.269-.155.956-.293,1.388" fill="#a97500"/>
      <path id="Path_754" data-name="Path 754" d="M138.649,101.15a1.26,1.26,0,0,0-1.348-1.1c-.211.111-.42.224-.631.336v.089a1.244,1.244,0,0,1,1.216.942c-.452.38-.9.761-1.352,1.142a1.11,1.11,0,0,0,.384.9,1.389,1.389,0,0,0,.652-.358,2.643,2.643,0,0,1-.269-.785,6.31,6.31,0,0,1,1.348-1.166" fill="#a97500"/>
      <path id="Path_755" data-name="Path 755" d="M125.735,102.562c-.008.09-.014.179-.021.27.113.124.24.317.426.358a3.235,3.235,0,0,0,1.576-.651c-.335-.194-.966.488-1.238-.089-.006-.054-.013-.1-.021-.156.224-.22.624-.332.764-.629a6.027,6.027,0,0,0-.45-1.5c-.052-.084-.131-.085-.268-.09-.143.031-.286.06-.429.09-.023.037-.045.075-.067.112-.124.348.425,1.25.471,1.658-.192.2-.619.38-.743.628" fill="#a97500"/>
      <path id="Path_756" data-name="Path 756" d="M130.348,103.123c.969-.083,1.023-1.2.586-1.884-.572-.886-1.062-.9-2.521-.873a.315.315,0,0,0-.044.022c-.024.059-.046.119-.069.179.394.4.689.158,1.239.359a1.771,1.771,0,0,1,.741,2.131l.068.066" fill="#a97500"/>
      <path id="Path_757" data-name="Path 757" d="M103.327,100.79c-.618.585,0,.913-.158,1.683-.228,1.085-.187,2.23-.4,3.363a12.694,12.694,0,0,0-.225,1.57,1.179,1.179,0,0,0,.652.7c.306-.019.385-.2.563-.339v-.11c-.138-.183-.387-.337-.449-.584q.271-2.22.541-4.44c.129-.664.189-1.8-.519-1.839" fill="#a97500"/>
      <path id="Path_758" data-name="Path 758" d="M122.631,103.952c.029.031.06.06.09.09a1.537,1.537,0,0,0,1.056-1.12c.2-.955-.527-1.374.272-1.862-.025-.1-.008-.062-.069-.112-.3.168-.953.377-1.057.718-.153.5.262.85.181,1.279a3.155,3.155,0,0,1-.473,1.008" fill="#a97500"/>
      <path id="Path_759" data-name="Path 759" d="M88.59,102.317c.163.034.263-.117.473-.135a14.833,14.833,0,0,0,1.484,1.167c.705.416,1.613.536,2.339.963.328.193.314.478.81.7.218-.1.228-.232.338-.428a1.094,1.094,0,0,0-.338-.629l-1.192-.469a10.309,10.309,0,0,1-1.821-.921c-.342-.229-.608-.683-.968-.851-.274-.09-.416.231-.742.246l-.136-.156c-.053-.312.133-.356.181-.606l-.113-.089c-.059-.009-.119-.017-.18-.022a1.313,1.313,0,0,0-.652.9.924.924,0,0,0,.518.336" fill="#a97500"/>
      <path id="Path_760" data-name="Path 760" d="M98.466,104.491l.112.112a.43.43,0,0,0,.338-.022c.358-.168.318-.831.472-1.21.113-.158.226-.314.337-.471a.932.932,0,0,0-.787-1.368,1.191,1.191,0,0,0-.383.315c.047.371.478.35.562.672.137.519-.294.857-.427,1.143-.074.278-.151.554-.226.83" fill="#a97500"/>
      <path id="Path_761" data-name="Path 761" d="M109.222,106.016a.757.757,0,0,0,.45-.224q.01-.943.022-1.883c.057-.278.373-.6.314-.922-.091-.216-.181-.431-.271-.65.037-.135.074-.268.113-.4-.074-.082-.146-.1-.315-.088-1.083.709-.125.87-.338,1.748q-.111.267-.225.538a3.059,3.059,0,0,0,.181,1.861l.068.023" fill="#a97500"/>
      <path id="Path_762" data-name="Path 762" d="M120.99,106.622a1.984,1.984,0,0,0,1.664,1.636c.1.026.187.125.359.09a7.371,7.371,0,0,0,1.3-.47c.016-.032.032-.061.046-.092v-.023c-.176-.032-.326.077-.517.09a1.841,1.841,0,0,1-1.757-.761,2.121,2.121,0,0,1-.381-1.48c.046-.245.23-.6.112-.9-.1-.263-.674-.353-.877-.538-.662-.6-.795-2.1-1.709-2.332-.054.044-.1.088-.159.135a1.581,1.581,0,0,0,.181.9c.343.959.729,1.8,1.733,2.106.24.427-.139,1.025,0,1.638" fill="#a97500"/>
      <path id="Path_763" data-name="Path 763" d="M116.309,102.091c-.09-.006-.181-.015-.27-.021l-.247.066-.135.135a5.038,5.038,0,0,0,.427,1.3,1.187,1.187,0,0,0,.561-.044,1.487,1.487,0,0,0-.336-1.436" fill="#a97500"/>
      <path id="Path_764" data-name="Path 764" d="M107.309,102.54c-.007-.038-.015-.074-.023-.112-.007-.022-.015-.044-.021-.068-.06-.007-.121-.013-.181-.022a6.064,6.064,0,0,0-1.732,2.176c-.071.123-.536.775-.338.874.351.179.608-.378.7-.515a11.086,11.086,0,0,1,1.6-2.333" fill="#a97500"/>
      <path id="Path_765" data-name="Path 765" d="M113.046,103.976c-.289-.664-.346-1.489-1.281-1.5a2.9,2.9,0,0,0-.317.2c-.006.074-.014.148-.022.224.105.23.427.216.519.426.231.521.343.994.561,1.5q.744,1.559,1.485,3.116c.256.519.532,1.377,1.283,1.392a.788.788,0,0,0,.27-.471l-.676-.964q-.91-1.961-1.822-3.924" fill="#a97500"/>
      <path id="Path_766" data-name="Path 766" d="M127.987,106.869a1.09,1.09,0,0,0,.246-.674,3.136,3.136,0,0,1-.81-2.219.314.314,0,0,1-.023-.024c-.037-.006-.076-.013-.112-.022-.217.111-.462.162-.586.36-.456.732.864,2.294,1.126,2.6l.158-.022" fill="#a97500"/>
      <path id="Path_767" data-name="Path 767" d="M116.264,104.738l-.271-.022c-.273.148-.623.173-.855.337v.068l.112.066a.5.5,0,0,1,.63.2c.1.6-.493,1.454.158,1.772h.27a.583.583,0,0,0,.247-.2,1.067,1.067,0,0,0-.113-.606c-.144-.584.494-1.34-.179-1.614" fill="#a97500"/>
      <path id="Path_768" data-name="Path 768" d="M124.722,105.745c-.132-.561-.857-.835-1.618-.806a1.673,1.673,0,0,0-.382.291v.022c.007.016.013.03.021.047.964.417,1.352.235,1.193,1.614.5.234.933-.552.786-1.168" fill="#a97500"/>
      <path id="Path_769" data-name="Path 769" d="M108.187,108.931c.315.212.67-.048.878-.2v-.089a22.477,22.477,0,0,1-1.4-2.577c-.16-.276-.245-.831-.517-.988a.459.459,0,0,0-.293-.044c-.157.1-.3.135-.382.314-.061.193.415.981.518,1.188a13.108,13.108,0,0,0,1.192,2.4" fill="#a97500"/>
      <path id="Path_770" data-name="Path 770" d="M108.4,16.84a1.912,1.912,0,0,0-.892.5c-.076.135.017.3.2.2a2.192,2.192,0,0,1,1.419-.278c.152.016.445.02.271-.2-.306-.382-.994-.23-.994-.23" fill="#a97500"/>
      <path id="Path_771" data-name="Path 771" d="M141.283,25.892c-.332.067-.484.422-.56.558s-.07.158.108.065a1.25,1.25,0,0,1,.494-.15.921.921,0,0,1,.388.021c.152.018.446.022.273-.194a.752.752,0,0,0-.7-.3" fill="#a97500"/>
      <path id="Path_772" data-name="Path 772" d="M109.047,19.474a1.883,1.883,0,0,0-.892.5c-.077.136.017.3.2.2a2.871,2.871,0,0,1,.749-.272,1.726,1.726,0,0,1,.525.017c.153.017.446.021.272-.195a.9.9,0,0,0-.849-.253" fill="#a97500"/>
      <path id="Path_773" data-name="Path 773" d="M114.73,18.152a2.853,2.853,0,0,0,.407-.584c.086-.262-.364-.026-.364-.026a4.588,4.588,0,0,0-.459.431,1.7,1.7,0,0,0-.212.288c-.017.042-.092.185-.043.229.085.077.442-.058.672-.338" fill="#a97500"/>
      <path id="Path_774" data-name="Path 774" d="M154.143,52.211a1.255,1.255,0,0,1-.395-.674,13.986,13.986,0,0,0-.721-2.141,1.25,1.25,0,0,0-.652-.47c-.038.044-.075.089-.112.133-.2.678.6,2.257.772,2.983a.025.025,0,0,0,0,.01s0,0,0,0c0,.018.008.038.011.054a.1.1,0,0,0,.015.007c.255.517,1.35.763,1.583.34.161-.288-.285-.113-.5-.246" fill="#a97500"/>
      <path id="Path_775" data-name="Path 775" d="M82.178,97.474h.112s.258-.145.52-.313a3.158,3.158,0,0,0,2.4,1.053,4.381,4.381,0,0,0,.857-.36c.007-.037.014-.074.021-.112l-.021-.022a2.856,2.856,0,0,1-2.3-.763c-.158-.1-.252-.243-.458-.3-.171-.1-.536.17-.69.3l-.017.015a.976.976,0,0,1-.3-.33.7.7,0,0,1,.338-.515v-.09l-.136-.067a1.716,1.716,0,0,0-.9.806c.02.336.339.559.562.7" fill="#a97500"/>
      <path id="Path_776" data-name="Path 776" d="M69.944,53.626c-.161-.032-.371-.113-.485-.016a.609.609,0,0,0-.178.37c-.025.134-.129.273-.08.338a.493.493,0,0,0,.145.113s.13-.307.291-.386.339-.178.387-.194a.131.131,0,0,0-.08-.225" fill="#a97500"/>
      <path id="Path_777" data-name="Path 777" d="M99.931,42.1c-.18.022-.446.306-.395.458a.216.216,0,0,0,.1,0c.052-.012.23-.126.346-.165s.293.089.357.063.064-.1.039-.166a.553.553,0,0,0-.447-.191" fill="#a97500"/>
      <path id="Path_778" data-name="Path 778" d="M133.834,42.474c.136-.139.167-.555.022-.649a.25.25,0,0,0-.085.069c-.034.045-.106.261-.177.37s-.306.122-.343.185.017.128.08.164a.59.59,0,0,0,.5-.14" fill="#a97500"/>
      <path id="Path_779" data-name="Path 779" d="M80.855,62.838c.04.076.229.01.421.018a4.407,4.407,0,0,1,.6.048c.178.033.25.163.337.2s.118-.046.146-.134a.623.623,0,0,0-.075-.373c-.058-.13-.252-.086-.395-.094s-.859.04-.859.04-.277.095-.17.29" fill="#a97500"/>
      <path id="Path_780" data-name="Path 780" d="M106.477,56.051c-.143-.008-.792.1-.792.1s-.276.094-.169.29c.04.075.23.009.42.016a4.614,4.614,0,0,1,.6.049c.178.033.249.162.338.2s.116-.045.145-.134a.634.634,0,0,0-.073-.373c-.06-.129-.322-.146-.465-.154" fill="#a97500"/>
      <path id="Path_781" data-name="Path 781" d="M106.914,77.965a3.527,3.527,0,0,1,.637.063c.19.046.263.238.357.3s.126-.071.158-.2a1.232,1.232,0,0,0-.073-.554c-.061-.191-.341-.212-.493-.223a6.685,6.685,0,0,0-.849.164.354.354,0,0,0-.187.436c.044.112.246.009.45.018" fill="#a97500"/>
      <path id="Path_782" data-name="Path 782" d="M106.312,80.741c.041.075.23.01.422.017a4.782,4.782,0,0,1,.6.049c.178.033.249.163.337.205s.117-.047.146-.135a.63.63,0,0,0-.075-.373c-.058-.13-.321-.146-.463-.154a7.933,7.933,0,0,0-.791.1s-.278.094-.17.29" fill="#a97500"/>
      <path id="Path_783" data-name="Path 783" d="M81.276,60.052a4.405,4.405,0,0,1,.6.048,3.268,3.268,0,0,1,.587.216c.088.042.116-.047.145-.134a.62.62,0,0,0-.074-.373c-.059-.129-.5-.1-.644-.106s-.859.042-.859.042-.277.1-.17.29c.04.076.229.011.421.017" fill="#a97500"/>
    </g>
    <g id="Group_16" data-name="Group 16">
      <path id="Path_784" data-name="Path 784" d="M33.089,119.442l.395-.137q.223,0,.258.137.361,2.065.361,2.432t-.24.367q-.155,0-.3-.367a3.959,3.959,0,0,0-.343-.674,2.811,2.811,0,0,0-.284-.393q-.086-.085-.446-.41a3.112,3.112,0,0,0-2.121-.819,3.239,3.239,0,0,0-1.915.512,1.565,1.565,0,0,0-.721,1.331,1.959,1.959,0,0,0,.421,1.314,2.738,2.738,0,0,0,1.125.768q.7.273,1.477.512a7.144,7.144,0,0,1,3.074,1.69,2.572,2.572,0,0,1,.687,1.826,3.657,3.657,0,0,1-1.151,2.842,4.071,4.071,0,0,1-2.85,1.05,11.349,11.349,0,0,1-1.906-.128,5.159,5.159,0,0,1-1.477-.521q-.224-.136-.532-1.331a8.711,8.711,0,0,1-.309-1.493q0-.3.232-.3c.155,0,.249.057.283.171a4.987,4.987,0,0,0,1.494,2.15,3.611,3.611,0,0,0,2.241.7A3.1,3.1,0,0,0,32.634,130a2.22,2.22,0,0,0,.781-1.766,1.83,1.83,0,0,0-.532-1.34,3.166,3.166,0,0,0-1.219-.777,21.481,21.481,0,0,1-3.468-1.382,2.784,2.784,0,0,1-1.563-2.475,3.03,3.03,0,0,1,1.107-2.466,4.375,4.375,0,0,1,2.876-.913,5.343,5.343,0,0,1,1.554.282Q33.072,119.442,33.089,119.442Z" fill="#a97500"/>
      <path id="Path_785" data-name="Path 785" d="M37.827,124.341l.017-1.843a15.414,15.414,0,0,0-.1-2.031.87.87,0,0,0-.455-.666,1.439,1.439,0,0,0-.7-.239.519.519,0,0,1-.395-.111.317.317,0,0,1-.094-.179q0-.188.48-.187l1.94.068,1.511-.034q.378,0,.378.239,0,.29-.6.29-.343,0-.5.7a6.63,6.63,0,0,0-.155,1.434v.631l-.034,1.57a.935.935,0,0,0,.1.546q.1.12.481.119l2.816-.017,3.245.034q.189,0,.189-2.372v-.921q0-1.28-.515-1.57a1.228,1.228,0,0,0-.421-.154,1.609,1.609,0,0,1-.361-.094.226.226,0,0,1-.146-.23q0-.17.67-.171l1.666.034,1.339-.034q.395,0,.395.222c0,.148-.08.222-.24.222a.908.908,0,0,0-.729.29,1.138,1.138,0,0,0-.249.768l-.086,6.707v.631l.069,1.57q0,1.11,1.442,1.263c.137,0,.206.063.206.188,0,.08-.057.131-.172.154a4.147,4.147,0,0,1-.67.034l-1.322-.085-1.614.085h-.292q-.24,0-.283-.068a.3.3,0,0,1-.043-.162q0-.094.172-.18a1.865,1.865,0,0,1,.378-.137,1.019,1.019,0,0,0,.4-.2q.36-.256.36-1.6l.052-3.021a.366.366,0,0,0-.206-.358,1.606,1.606,0,0,0-.67-.1q-.464,0-1.391.034l-.927.017-3.159-.051a.439.439,0,0,0-.343.1.981.981,0,0,0-.086.529l-.068,2.1v.734a3.239,3.239,0,0,0,.137,1.092,1.586,1.586,0,0,0,.669.7,1.021,1.021,0,0,0,.5.085q.567,0,.567.188,0,.307-.55.307L39,131.133l-1.854.085q-.807,0-.807-.256,0-.239.532-.307a.762.762,0,0,0,.429-.213.93.93,0,0,0,.292-.529q.069-.332.155-1.8t.086-2.8Z" fill="#a97500"/>
      <path id="Path_786" data-name="Path 786" d="M51.564,125.143l.052-2.952q0-.461-.034-1.553a.912.912,0,0,0-.429-.768,1.811,1.811,0,0,0-.962-.29q-.275,0-.275-.307,0-.239.481-.239l.464.034,4.19.085,3.434-.068q.326,0,.326.392a6.551,6.551,0,0,1-.1.674,5.385,5.385,0,0,0-.1.9q0,.547-.266.546t-.266-.41a1.264,1.264,0,0,0-.292-.785.935.935,0,0,0-.721-.393q-1.545-.119-2.37-.119h-.447a2.32,2.32,0,0,0-1.03.119q-.258.222-.258,3.772,0,.853.327.87h1.682a8.7,8.7,0,0,0,1.374-.068,1.1,1.1,0,0,0,1.013-.887q.051-.29.223-.29t.206.051a.465.465,0,0,1,.034.222l-.137,1.792.052,1.041q0,.427-.12.427-.258,0-.378-.41a1.813,1.813,0,0,0-.429-.836,2.4,2.4,0,0,0-1.253-.239H54.311l-.549-.017h-.12q-.7,0-.7.325l-.034,2.457v.683q0,1.228.421,1.357a2.561,2.561,0,0,0,.73.128,12.139,12.139,0,0,0,3.726-.41,2.318,2.318,0,0,0,1.236-.785q.206-.426.377-.427.206,0,.206.29a2.165,2.165,0,0,1-.738,1.485,2.015,2.015,0,0,1-1.288.751q-1.236,0-2.79-.085t-1.932-.085l-2.335.154q-.36,0-.36-.171v-.2c0-.068.057-.114.172-.136a2,2,0,0,0,.584-.205,1.038,1.038,0,0,0,.523-.785,15,15,0,0,0,.129-2.509Z" fill="#a97500"/>
      <path id="Path_787" data-name="Path 787" d="M62.209,123.9l-.017-2.885a1.552,1.552,0,0,0-.258-.964.887.887,0,0,0-.575-.375,4.632,4.632,0,0,1-.575-.111q-.258-.068-.258-.239,0-.273.5-.273h2.85L65.592,119a4.466,4.466,0,0,1,2.644.777,2.435,2.435,0,0,1,1.1,2.091A3.32,3.32,0,0,1,69,123.393a2.589,2.589,0,0,1-.738.947q-.4.291-.738.5t-.335.281a12.655,12.655,0,0,0,1.442,2.21,31.02,31.02,0,0,0,1.975,2.569,1.972,1.972,0,0,0,1.58.8c.16,0,.24.068.24.205a.332.332,0,0,1-.206.341,3.651,3.651,0,0,1-1.039.086,2.915,2.915,0,0,1-1.5-.393q-.927-.529-3.074-4.1-.824-1.331-1.271-1.331H63.926a.224.224,0,0,0-.249.171,6.373,6.373,0,0,0-.043,1.007v1.382l.017.9v.154a1.623,1.623,0,0,0,.326,1.084,1.185,1.185,0,0,0,.73.444q.4.06.73.136t.326.247q0,.273-.309.273L63,131.2l-1.889.068q-.361,0-.361-.273,0-.29.721-.375a.73.73,0,0,0,.5-.375,1.778,1.778,0,0,0,.223-.973Zm1.425-1.844q0,1.758.017,2.176t.12.486a1.454,1.454,0,0,0,.738.154h.67a2.77,2.77,0,0,0,2.086-.665,2.4,2.4,0,0,0,.627-1.716,2.724,2.724,0,0,0-.833-1.92,3.33,3.33,0,0,0-2.515-.87q-.635,0-.773.333a5.185,5.185,0,0,0-.137,1.544Z" fill="#a97500"/>
      <path id="Path_788" data-name="Path 788" d="M73.679,130.724l.395-.017q.361,0,.6-.6a4.133,4.133,0,0,0,.189-1.246q.034-.853.034-5.069v-2.9a1.4,1.4,0,0,0-.172-.614,1.339,1.339,0,0,0-1.339-.717c-.195,0-.292-.068-.292-.2q0-.256.155-.256l.687.017,2.507-.017,1.889-.051a4.4,4.4,0,0,1,2.61.742,2.431,2.431,0,0,1,1.047,2.108,2.766,2.766,0,0,1-1.545,2.406.72.72,0,0,0-.172.137c0,.034.1.077.292.128a5,5,0,0,1,.7.256,3.949,3.949,0,0,1,.816.486,2.471,2.471,0,0,1,.7.913,3.152,3.152,0,0,1,.292,1.382,3.53,3.53,0,0,1-.429,1.613,3.445,3.445,0,0,1-1.1,1.3,4.41,4.41,0,0,1-1.322.64,5.511,5.511,0,0,1-1.459.179q-.807,0-1.94-.094t-1.253-.094l-1.477.068h-.24q-.361,0-.361-.247C73.49,130.807,73.553,130.724,73.679,130.724Zm2.541-1.844-.017.751q0,1.024,1.683,1.024h.395a10.128,10.128,0,0,0,1.605-.111,1.894,1.894,0,0,0,1.2-.811,2.608,2.608,0,0,0,.524-1.6,3.305,3.305,0,0,0-.309-1.51,2.675,2.675,0,0,0-.7-.913,2.952,2.952,0,0,0-.944-.478,4.7,4.7,0,0,0-1.408-.239l-1.339-.017-.258-.017a.438.438,0,0,0-.223.043c-.046.028-.092.139-.137.333a21.425,21.425,0,0,0-.069,2.389Zm.086-6.98a11.163,11.163,0,0,0,.12,2.389q.068.12.978.119h1.1a2.151,2.151,0,0,0,1.623-.563,2.055,2.055,0,0,0,.541-1.485,2.6,2.6,0,0,0-.9-1.818,3.484,3.484,0,0,0-2.567-.9.749.749,0,0,0-.713.316,3.547,3.547,0,0,0-.18,1.442Z" fill="#a97500"/>
      <path id="Path_789" data-name="Path 789" d="M84.565,125.416a6.569,6.569,0,0,1,1.735-4.7,6.432,6.432,0,0,1,4.91-1.835,7.826,7.826,0,0,1,2.662.427,5.58,5.58,0,0,1,1.872,1.05,5.914,5.914,0,0,1,1.15,1.425,5.457,5.457,0,0,1,.807,2.731,7.846,7.846,0,0,1-.91,3.925q-1.734,3.038-5.821,3.038a6.752,6.752,0,0,1-3.529-.887,5.6,5.6,0,0,1-2.181-2.236A6.314,6.314,0,0,1,84.565,125.416Zm1.511-.87a7.419,7.419,0,0,0,1.846,4.634,4.746,4.746,0,0,0,1.545,1.109,4.806,4.806,0,0,0,2.052.436,4.865,4.865,0,0,0,2.507-.734,4.407,4.407,0,0,0,1.94-2.236,4.233,4.233,0,0,0,.326-1.673,6.693,6.693,0,0,0-1.631-4.8,5.345,5.345,0,0,0-4.035-1.716,4.508,4.508,0,0,0-3.219,1.263A4.892,4.892,0,0,0,86.076,124.545Z" fill="#a97500"/>
      <path id="Path_790" data-name="Path 790" d="M100.722,123.9l-.017-2.885a1.552,1.552,0,0,0-.258-.964.887.887,0,0,0-.575-.375,4.631,4.631,0,0,1-.575-.111q-.258-.068-.258-.239,0-.273.5-.273h2.85L104.1,119a4.466,4.466,0,0,1,2.644.777,2.435,2.435,0,0,1,1.1,2.091,3.32,3.32,0,0,1-.335,1.528,2.589,2.589,0,0,1-.738.947q-.4.291-.738.5t-.335.281a12.656,12.656,0,0,0,1.442,2.21,31.087,31.087,0,0,0,1.975,2.569,1.971,1.971,0,0,0,1.579.8q.241,0,.241.205a.332.332,0,0,1-.206.341,3.646,3.646,0,0,1-1.039.086,2.915,2.915,0,0,1-1.5-.393q-.927-.529-3.074-4.1-.824-1.331-1.271-1.331h-1.408a.224.224,0,0,0-.249.171,6.372,6.372,0,0,0-.043,1.007v1.382l.017.9v.154a1.623,1.623,0,0,0,.326,1.084,1.185,1.185,0,0,0,.73.444q.4.06.73.136t.326.247q0,.273-.309.273l-2.455-.119-1.889.068q-.361,0-.361-.273,0-.29.721-.375a.73.73,0,0,0,.5-.375,1.778,1.778,0,0,0,.223-.973Zm1.425-1.844q0,1.758.017,2.176t.12.486a1.454,1.454,0,0,0,.738.154h.67a2.77,2.77,0,0,0,2.086-.665,2.4,2.4,0,0,0,.627-1.716,2.722,2.722,0,0,0-.833-1.92,3.329,3.329,0,0,0-2.515-.87q-.635,0-.773.333a5.185,5.185,0,0,0-.137,1.544Z" fill="#a97500"/>
      <path id="Path_791" data-name="Path 791" d="M113.737,131.236l-1.459.034q-.378,0-.378-.273c0-.1.074-.168.223-.2a1.574,1.574,0,0,0,.549-.265,1.223,1.223,0,0,0,.464-.725,26.048,26.048,0,0,0,.292-3.286q.155-2.782.155-4.045a4.04,4.04,0,0,0-.412-1.988,1.646,1.646,0,0,0-1.339-.827.223.223,0,0,1-.223-.256.258.258,0,0,1,.12-.2.488.488,0,0,1,.309-.094l.652.017.841-.034a.9.9,0,0,1,.361.094c.137.063.217.119.24.171a1.328,1.328,0,0,0,.189.256q.155.179.412.47t.464.563q2.335,3.021,6.25,7.288c.069.08.151.171.249.273s.166.179.206.23a1.558,1.558,0,0,0,.129.145c.08.08.143.119.189.119q.172,0,.172-1.058v-2l-.034-3.5v-.119q0-1.57-.549-2a1.233,1.233,0,0,0-.344-.2q-.137-.043-.395-.094-.7-.137-.7-.384t.326-.247l1.631.017,1.546-.034a.943.943,0,0,1,.4.06.193.193,0,0,1,.112.179.213.213,0,0,1-.1.188,2.6,2.6,0,0,1-.5.2q-.567.308-.567,1.929v.649l-.189,8.449v.341q0,.393-.24.393a.38.38,0,0,1-.275-.119q-5.7-6.571-6.808-7.808a7.129,7.129,0,0,0-1.228-1.238q-.172,0-.172,1.391t-.069,3.26q-.069,1.868-.069,2.04a2.116,2.116,0,0,0,.266,1.169.911.911,0,0,0,.575.452q.309.051.575.111c.177.04.266.119.266.239a.309.309,0,0,1-.06.23.337.337,0,0,1-.215.051Z" fill="#a97500"/>
      <path id="Path_792" data-name="Path 792" d="M127.2,125.143l.051-2.952q0-.461-.034-1.553a.911.911,0,0,0-.429-.768,1.81,1.81,0,0,0-.961-.29q-.275,0-.275-.307,0-.239.48-.239l.464.034,4.189.085,3.434-.068q.326,0,.327.392a6.546,6.546,0,0,1-.1.674,5.386,5.386,0,0,0-.1.9q0,.547-.266.546t-.266-.41a1.264,1.264,0,0,0-.292-.785.934.934,0,0,0-.721-.393q-1.546-.119-2.37-.119h-.446a2.324,2.324,0,0,0-1.031.119q-.257.222-.257,3.772,0,.853.326.87H130.6a8.689,8.689,0,0,0,1.374-.068,1.1,1.1,0,0,0,1.013-.887q.051-.29.223-.29t.206.051a.461.461,0,0,1,.034.222l-.137,1.792.052,1.041q0,.427-.12.427-.258,0-.378-.41a1.813,1.813,0,0,0-.429-.836,2.4,2.4,0,0,0-1.253-.239h-1.236l-.549-.017h-.12q-.7,0-.7.325l-.034,2.457v.683q0,1.228.421,1.357a2.561,2.561,0,0,0,.73.128,12.134,12.134,0,0,0,3.726-.41,2.317,2.317,0,0,0,1.237-.785q.206-.426.378-.427c.137,0,.206.1.206.29a2.165,2.165,0,0,1-.738,1.485,2.015,2.015,0,0,1-1.288.751q-1.236,0-2.79-.085t-1.932-.085l-2.335.154q-.36,0-.36-.171v-.2c0-.068.057-.114.171-.136a1.989,1.989,0,0,0,.584-.205,1.038,1.038,0,0,0,.524-.785,15.029,15.029,0,0,0,.129-2.509Z" fill="#a97500"/>
      <path id="Path_793" data-name="Path 793" d="M140.574,129.871a5.19,5.19,0,0,1-2.215-4.48,6.775,6.775,0,0,1,1.622-4.7A6.417,6.417,0,0,1,145,118.879a6.806,6.806,0,0,1,2.567.461,5.231,5.231,0,0,1,1.8,1.135,6.3,6.3,0,0,1,1.107,1.545,6.04,6.04,0,0,1,.756,2.79,7.945,7.945,0,0,1-.412,2.56,6.372,6.372,0,0,1-1.279,2.2,4.172,4.172,0,0,1-2.035,1.306,5.886,5.886,0,0,0-1.168.375c0,.125.109.233.327.325q.223.1,1.15.512t1.159.5q.232.085.627.239t.661.23c.177.051.375.1.592.162a4.256,4.256,0,0,0,1.082.154,1.8,1.8,0,0,0,.79-.145,2.369,2.369,0,0,0,.455-.282.476.476,0,0,1,.283-.137.216.216,0,0,1,.18.077.228.228,0,0,1,.06.128q0,.6-.927,1.049a4.576,4.576,0,0,1-2.034.452,8.3,8.3,0,0,1-3.074-.87q-1.966-.87-3.692-1.741a7.1,7.1,0,0,0-2.241-.87,1.32,1.32,0,0,0-1.167.546,2.162,2.162,0,0,0-.378,1.263v.307q0,.444-.309.444-.172,0-.292-.222a1.022,1.022,0,0,1-.12-.495,3.04,3.04,0,0,1,.343-1.416,2.6,2.6,0,0,1,.738-.947,1.9,1.9,0,0,0,.395-.316Q140.952,130.127,140.574,129.871Zm.652-9.046a4.852,4.852,0,0,0-1.3,3.653,6.814,6.814,0,0,0,1.271,4.13,4.813,4.813,0,0,0,1.915,1.528,5.441,5.441,0,0,0,2.31.589,5.193,5.193,0,0,0,2.335-.649,4.142,4.142,0,0,0,1.434-1.476,4.532,4.532,0,0,0,.712-2.517,6.928,6.928,0,0,0-1.6-4.634,4.911,4.911,0,0,0-3.881-1.886A4.42,4.42,0,0,0,141.226,120.825Z" fill="#a97500"/>
      <path id="Path_794" data-name="Path 794" d="M153.709,131.2l-1.476.068q-.5,0-.5-.2a.325.325,0,0,1,.257-.324,1.954,1.954,0,0,0,.962-.913q.412-.708,2.069-4.284t2.945-6.306a.879.879,0,0,1,.215-.325.466.466,0,0,1,.275-.068c.12,0,.2.023.232.068a2.561,2.561,0,0,1,.189.461q.137.393.215.6l.249.666q.171.461.549,1.382t1.726,4.036q1.348,3.115,1.554,3.533a2.151,2.151,0,0,0,.566.717,1.247,1.247,0,0,0,.627.324,2.09,2.09,0,0,1,.446.085.251.251,0,0,1,.18.265q0,.256-.463.256l-1.545-.1-1.6.068a3.191,3.191,0,0,1-.678-.043.176.176,0,0,1-.146-.179.236.236,0,0,1,.137-.213.885.885,0,0,1,.292-.1.516.516,0,0,0,.429-.58,6.233,6.233,0,0,0-.429-1.459,14.822,14.822,0,0,0-.721-1.707q-.154-.29-.7-.29l-2.078.034h-.91a3.236,3.236,0,0,0-.97.085.681.681,0,0,0-.327.358q-.128.273-.369.759t-.326.674q-.086.188-.206.478a2.232,2.232,0,0,0-.223.853.762.762,0,0,0,.635.785q.635.051.635.324a.267.267,0,0,1-.052.179.33.33,0,0,1-.24.06Zm3.159-7.842a13.953,13.953,0,0,0-.824,2.091.237.237,0,0,0,.155.256,3.008,3.008,0,0,0,.721.051h.532l1.631-.017q.67,0,.67-.247a12.232,12.232,0,0,0-.841-2.133q-.842-1.885-1.065-1.886A6.5,6.5,0,0,0,156.869,123.359Z" fill="#a97500"/>
      <path id="Path_795" data-name="Path 795" d="M165.162,118.947q.223,0,1.4.068t4.627.069q3.451,0,4.172-.1a.288.288,0,0,1,.258.1.347.347,0,0,1,.069.187l.1,1.382a1.655,1.655,0,0,1-.052.538.22.22,0,0,1-.223.111q-.137,0-.232-.35a2.539,2.539,0,0,0-.2-.538q-.257-.444-1.494-.444h-2.232q-.412,0-.507.162a2.56,2.56,0,0,0-.094.93v.836l-.052,6.247-.017,1.109a1.374,1.374,0,0,0,.232.956,1.591,1.591,0,0,0,.507.333,1.69,1.69,0,0,0,.464.128q.48.035.481.307c0,.125-.029.205-.086.239a.708.708,0,0,1-.327.051l-1.906-.137-1.751.119q-.635,0-.636-.273a.244.244,0,0,1,.1-.23,1.289,1.289,0,0,1,.4-.1q.3-.043.386-.06a.761.761,0,0,0,.652-.682q.171-1.5.171-6.452l-.017-3.055c0-.216-.063-.35-.189-.4a5.329,5.329,0,0,0-1.253-.077,15.966,15.966,0,0,0-1.674.068,2.868,2.868,0,0,0-.713.128.994.994,0,0,0-.249.248,1.665,1.665,0,0,0-.24.435,3.048,3.048,0,0,0-.129.4q-.052.393-.326.393c-.126,0-.189-.1-.189-.29a8.137,8.137,0,0,1,.086-1.237q.085-.554.094-.64a.593.593,0,0,1,.017-.111.53.53,0,0,0,.017-.085.214.214,0,0,1,.026-.085c.011-.017.026-.04.043-.069a.151.151,0,0,1,.06-.06.7.7,0,0,1,.086-.034A1.127,1.127,0,0,1,165.162,118.947Z" fill="#a97500"/>
      <path id="Path_796" data-name="Path 796" d="M177.182,131.2l-1.476.068q-.5,0-.5-.2a.325.325,0,0,1,.258-.324,1.953,1.953,0,0,0,.962-.913q.412-.708,2.069-4.284t2.945-6.306a.879.879,0,0,1,.215-.325.466.466,0,0,1,.275-.068c.12,0,.2.023.232.068a2.537,2.537,0,0,1,.189.461q.137.393.215.6t.249.666q.172.461.549,1.382t1.726,4.036q1.347,3.115,1.554,3.533a2.156,2.156,0,0,0,.567.717,1.246,1.246,0,0,0,.627.324,2.093,2.093,0,0,1,.446.085.251.251,0,0,1,.18.265q0,.256-.464.256l-1.545-.1-1.6.068a3.191,3.191,0,0,1-.678-.043.176.176,0,0,1-.146-.179.236.236,0,0,1,.137-.213.886.886,0,0,1,.292-.1.516.516,0,0,0,.429-.58,6.232,6.232,0,0,0-.429-1.459,14.879,14.879,0,0,0-.721-1.707q-.155-.29-.7-.29l-2.078.034h-.91a3.233,3.233,0,0,0-.97.085.681.681,0,0,0-.327.358q-.129.273-.369.759t-.326.674q-.086.188-.206.478a2.233,2.233,0,0,0-.223.853.762.762,0,0,0,.635.785q.635.051.635.324a.268.268,0,0,1-.052.179.33.33,0,0,1-.24.06Zm3.159-7.842a13.953,13.953,0,0,0-.824,2.091.237.237,0,0,0,.155.256,3,3,0,0,0,.721.051h.532l1.631-.017q.67,0,.67-.247a12.248,12.248,0,0,0-.841-2.133q-.842-1.885-1.065-1.886A6.5,6.5,0,0,0,180.341,123.359Z" fill="#a97500"/>
      <path id="Path_797" data-name="Path 797" d="M191.073,123.9l-.017-2.885a1.554,1.554,0,0,0-.257-.964.887.887,0,0,0-.575-.375,4.646,4.646,0,0,1-.576-.111q-.257-.068-.257-.239,0-.273.5-.273h2.85l1.717-.051a4.464,4.464,0,0,1,2.644.777,2.435,2.435,0,0,1,1.1,2.091,3.32,3.32,0,0,1-.335,1.528,2.586,2.586,0,0,1-.738.947q-.4.291-.738.5t-.335.281a12.662,12.662,0,0,0,1.442,2.21,31.065,31.065,0,0,0,1.975,2.569,1.972,1.972,0,0,0,1.58.8q.24,0,.24.205a.332.332,0,0,1-.206.341,3.647,3.647,0,0,1-1.039.086,2.916,2.916,0,0,1-1.5-.393q-.927-.529-3.073-4.1-.825-1.331-1.271-1.331H192.79a.224.224,0,0,0-.249.171,6.316,6.316,0,0,0-.043,1.007v1.382l.017.9v.154a1.626,1.626,0,0,0,.326,1.084,1.187,1.187,0,0,0,.73.444q.4.06.73.136t.326.247q0,.273-.309.273l-2.456-.119-1.888.068q-.361,0-.361-.273,0-.29.721-.375a.73.73,0,0,0,.5-.375,1.778,1.778,0,0,0,.223-.973Zm1.425-1.844q0,1.758.017,2.176t.12.486a1.454,1.454,0,0,0,.738.154h.67a2.77,2.77,0,0,0,2.086-.665,2.4,2.4,0,0,0,.627-1.716,2.724,2.724,0,0,0-.833-1.92,3.329,3.329,0,0,0-2.515-.87q-.636,0-.773.333a5.182,5.182,0,0,0-.138,1.544Z" fill="#a97500"/>
    </g>
  </g>
</svg>
